solid OpenSCAD_Model
  facet normal -1 0 0
    outer loop
      vertex 0 0 -35
      vertex 0 87 33
      vertex 0 87 -35
    endloop
  endfacet
  facet normal -1 -0 0
    outer loop
      vertex 0 87 33
      vertex 0 0 -35
      vertex 0 0 33
    endloop
  endfacet
  facet normal -0 0 1
    outer loop
      vertex 125.442 15.4786 37
      vertex 129 0 37
      vertex 125.442 69.5214 37
    endloop
  endfacet
  facet normal 0 0 1
    outer loop
      vertex 129 0 37
      vertex 125.442 15.4786 37
      vertex 125.5 15 37
    endloop
  endfacet
  facet normal -0 0 1
    outer loop
      vertex 125.271 69.0706 37
      vertex 125.442 15.4786 37
      vertex 125.442 69.5214 37
    endloop
  endfacet
  facet normal 0 0 1
    outer loop
      vertex 125.271 69.0706 37
      vertex 125.271 15.9294 37
      vertex 125.442 15.4786 37
    endloop
  endfacet
  facet normal -0 0 1
    outer loop
      vertex 124.997 68.6738 37
      vertex 125.271 15.9294 37
      vertex 125.271 69.0706 37
    endloop
  endfacet
  facet normal 0 0 1
    outer loop
      vertex 124.997 68.6738 37
      vertex 124.997 16.3262 37
      vertex 125.271 15.9294 37
    endloop
  endfacet
  facet normal -0 0 1
    outer loop
      vertex 124.636 68.354 37
      vertex 124.997 16.3262 37
      vertex 124.997 68.6738 37
    endloop
  endfacet
  facet normal 0 0 1
    outer loop
      vertex 124.636 68.354 37
      vertex 124.636 16.646 37
      vertex 124.997 16.3262 37
    endloop
  endfacet
  facet normal -0 0 1
    outer loop
      vertex 124.209 68.13 37
      vertex 124.636 16.646 37
      vertex 124.636 68.354 37
    endloop
  endfacet
  facet normal 0 0 1
    outer loop
      vertex 124.209 68.13 37
      vertex 124.209 16.87 37
      vertex 124.636 16.646 37
    endloop
  endfacet
  facet normal -0 0 1
    outer loop
      vertex 123.741 68.0146 37
      vertex 124.209 16.87 37
      vertex 124.209 68.13 37
    endloop
  endfacet
  facet normal 0 0 1
    outer loop
      vertex 123.741 68.0146 37
      vertex 123.741 16.9854 37
      vertex 124.209 16.87 37
    endloop
  endfacet
  facet normal -0 0 1
    outer loop
      vertex 123.259 68.0146 37
      vertex 123.741 16.9854 37
      vertex 123.741 68.0146 37
    endloop
  endfacet
  facet normal 0 0 1
    outer loop
      vertex 123.259 68.0146 37
      vertex 123.259 16.9854 37
      vertex 123.741 16.9854 37
    endloop
  endfacet
  facet normal 0 0 1
    outer loop
      vertex 122.791 68.13 37
      vertex 123.259 16.9854 37
      vertex 123.259 68.0146 37
    endloop
  endfacet
  facet normal 0 0 1
    outer loop
      vertex 122.791 68.13 37
      vertex 122.791 16.87 37
      vertex 123.259 16.9854 37
    endloop
  endfacet
  facet normal 0 0 1
    outer loop
      vertex 122.364 68.354 37
      vertex 122.791 16.87 37
      vertex 122.791 68.13 37
    endloop
  endfacet
  facet normal 0 0 1
    outer loop
      vertex 122.364 68.354 37
      vertex 122.364 16.646 37
      vertex 122.791 16.87 37
    endloop
  endfacet
  facet normal 0 0 1
    outer loop
      vertex 122.003 68.6738 37
      vertex 122.364 16.646 37
      vertex 122.364 68.354 37
    endloop
  endfacet
  facet normal 0 0 1
    outer loop
      vertex 122.003 68.6738 37
      vertex 122.003 16.3262 37
      vertex 122.364 16.646 37
    endloop
  endfacet
  facet normal 0 0 1
    outer loop
      vertex 121.729 69.0706 37
      vertex 122.003 16.3262 37
      vertex 122.003 68.6738 37
    endloop
  endfacet
  facet normal 0 0 1
    outer loop
      vertex 121.729 69.0706 37
      vertex 121.729 15.9294 37
      vertex 122.003 16.3262 37
    endloop
  endfacet
  facet normal 0 0 1
    outer loop
      vertex 121.558 69.5214 37
      vertex 121.729 15.9294 37
      vertex 121.729 69.0706 37
    endloop
  endfacet
  facet normal 0 0 1
    outer loop
      vertex 121.558 69.5214 37
      vertex 121.558 15.4786 37
      vertex 121.729 15.9294 37
    endloop
  endfacet
  facet normal 0 0 1
    outer loop
      vertex 114 85 37
      vertex 121.558 69.5214 37
      vertex 121.5 70 37
    endloop
  endfacet
  facet normal 0 0 1
    outer loop
      vertex 121.558 69.5214 37
      vertex 114 85 37
      vertex 121.558 15.4786 37
    endloop
  endfacet
  facet normal 0 0 1
    outer loop
      vertex 125.442 69.5214 37
      vertex 129 87 37
      vertex 125.5 70 37
    endloop
  endfacet
  facet normal 0 0 1
    outer loop
      vertex 129 87 37
      vertex 125.442 70.4786 37
      vertex 125.5 70 37
    endloop
  endfacet
  facet normal 0 0 1
    outer loop
      vertex 129 87 37
      vertex 125.271 70.9294 37
      vertex 125.442 70.4786 37
    endloop
  endfacet
  facet normal 0 0 1
    outer loop
      vertex 129 87 37
      vertex 124.997 71.3262 37
      vertex 125.271 70.9294 37
    endloop
  endfacet
  facet normal 0 0 1
    outer loop
      vertex 129 87 37
      vertex 124.636 71.646 37
      vertex 124.997 71.3262 37
    endloop
  endfacet
  facet normal 0 0 1
    outer loop
      vertex 129 87 37
      vertex 124.209 71.87 37
      vertex 124.636 71.646 37
    endloop
  endfacet
  facet normal 0 0 1
    outer loop
      vertex 129 87 37
      vertex 123.741 71.9854 37
      vertex 124.209 71.87 37
    endloop
  endfacet
  facet normal 0 0 1
    outer loop
      vertex 129 87 37
      vertex 123.259 71.9854 37
      vertex 123.741 71.9854 37
    endloop
  endfacet
  facet normal -0 0 1
    outer loop
      vertex 114 85 37
      vertex 123.259 71.9854 37
      vertex 129 87 37
    endloop
  endfacet
  facet normal 0 0 1
    outer loop
      vertex 123.259 71.9854 37
      vertex 114 85 37
      vertex 122.791 71.87 37
    endloop
  endfacet
  facet normal 0 0 1
    outer loop
      vertex 122.791 71.87 37
      vertex 114 85 37
      vertex 122.364 71.646 37
    endloop
  endfacet
  facet normal 0 0 1
    outer loop
      vertex 122.364 71.646 37
      vertex 114 85 37
      vertex 122.003 71.3262 37
    endloop
  endfacet
  facet normal 0 0 1
    outer loop
      vertex 114 0 37
      vertex 121.558 15.4786 37
      vertex 114 85 37
    endloop
  endfacet
  facet normal 0 0 1
    outer loop
      vertex 121.558 70.4786 37
      vertex 114 85 37
      vertex 121.5 70 37
    endloop
  endfacet
  facet normal 0 0 1
    outer loop
      vertex 121.729 70.9294 37
      vertex 114 85 37
      vertex 121.558 70.4786 37
    endloop
  endfacet
  facet normal 0 0 1
    outer loop
      vertex 122.003 71.3262 37
      vertex 114 85 37
      vertex 121.729 70.9294 37
    endloop
  endfacet
  facet normal -0 0 1
    outer loop
      vertex 110 87 37
      vertex 114 85 37
      vertex 129 87 37
    endloop
  endfacet
  facet normal 0 0 1
    outer loop
      vertex 114 85 37
      vertex 110 87 37
      vertex 110 85 37
    endloop
  endfacet
  facet normal 0 0 1
    outer loop
      vertex 129 87 37
      vertex 125.442 69.5214 37
      vertex 129 0 37
    endloop
  endfacet
  facet normal -0 0 1
    outer loop
      vertex 125.442 14.5214 37
      vertex 129 0 37
      vertex 125.5 15 37
    endloop
  endfacet
  facet normal -0 0 1
    outer loop
      vertex 125.271 14.0706 37
      vertex 129 0 37
      vertex 125.442 14.5214 37
    endloop
  endfacet
  facet normal -0 0 1
    outer loop
      vertex 124.997 13.6738 37
      vertex 129 0 37
      vertex 125.271 14.0706 37
    endloop
  endfacet
  facet normal -0 0 1
    outer loop
      vertex 124.636 13.354 37
      vertex 129 0 37
      vertex 124.997 13.6738 37
    endloop
  endfacet
  facet normal -0 0 1
    outer loop
      vertex 124.209 13.13 37
      vertex 129 0 37
      vertex 124.636 13.354 37
    endloop
  endfacet
  facet normal -0 0 1
    outer loop
      vertex 123.741 13.0146 37
      vertex 129 0 37
      vertex 124.209 13.13 37
    endloop
  endfacet
  facet normal -0 0 1
    outer loop
      vertex 123.259 13.0146 37
      vertex 129 0 37
      vertex 123.741 13.0146 37
    endloop
  endfacet
  facet normal 0 0 1
    outer loop
      vertex 114 0 37
      vertex 123.259 13.0146 37
      vertex 122.791 13.13 37
    endloop
  endfacet
  facet normal 0 0 1
    outer loop
      vertex 114 0 37
      vertex 122.791 13.13 37
      vertex 122.364 13.354 37
    endloop
  endfacet
  facet normal 0 0 1
    outer loop
      vertex 114 0 37
      vertex 122.364 13.354 37
      vertex 122.003 13.6738 37
    endloop
  endfacet
  facet normal 0 0 1
    outer loop
      vertex 114 0 37
      vertex 122.003 13.6738 37
      vertex 121.729 14.0706 37
    endloop
  endfacet
  facet normal 0 0 1
    outer loop
      vertex 123.259 13.0146 37
      vertex 114 0 37
      vertex 129 0 37
    endloop
  endfacet
  facet normal 0 0 1
    outer loop
      vertex 121.558 14.5214 37
      vertex 114 0 37
      vertex 121.729 14.0706 37
    endloop
  endfacet
  facet normal 0 0 1
    outer loop
      vertex 121.5 15 37
      vertex 114 0 37
      vertex 121.558 14.5214 37
    endloop
  endfacet
  facet normal 0 0 1
    outer loop
      vertex 121.558 15.4786 37
      vertex 114 0 37
      vertex 121.5 15 37
    endloop
  endfacet
  facet normal -0 0 1
    outer loop
      vertex -3.55812 15.4786 37
      vertex 4 0 37
      vertex -3.55812 69.5214 37
    endloop
  endfacet
  facet normal 0 0 1
    outer loop
      vertex 4 0 37
      vertex -3.55812 15.4786 37
      vertex -3.5 15 37
    endloop
  endfacet
  facet normal -0 0 1
    outer loop
      vertex -3.72909 69.0706 37
      vertex -3.55812 15.4786 37
      vertex -3.55812 69.5214 37
    endloop
  endfacet
  facet normal 0 0 1
    outer loop
      vertex -3.72909 69.0706 37
      vertex -3.72909 15.9294 37
      vertex -3.55812 15.4786 37
    endloop
  endfacet
  facet normal -0 0 1
    outer loop
      vertex -4.00298 68.6738 37
      vertex -3.72909 15.9294 37
      vertex -3.72909 69.0706 37
    endloop
  endfacet
  facet normal 0 0 1
    outer loop
      vertex -4.00298 68.6738 37
      vertex -4.00298 16.3262 37
      vertex -3.72909 15.9294 37
    endloop
  endfacet
  facet normal -0 0 1
    outer loop
      vertex -4.36387 68.354 37
      vertex -4.00298 16.3262 37
      vertex -4.00298 68.6738 37
    endloop
  endfacet
  facet normal 0 0 1
    outer loop
      vertex -4.36387 68.354 37
      vertex -4.36387 16.646 37
      vertex -4.00298 16.3262 37
    endloop
  endfacet
  facet normal -0 0 1
    outer loop
      vertex -4.79079 68.13 37
      vertex -4.36387 16.646 37
      vertex -4.36387 68.354 37
    endloop
  endfacet
  facet normal 0 0 1
    outer loop
      vertex -4.79079 68.13 37
      vertex -4.79079 16.87 37
      vertex -4.36387 16.646 37
    endloop
  endfacet
  facet normal -0 0 1
    outer loop
      vertex -5.25893 68.0146 37
      vertex -4.79079 16.87 37
      vertex -4.79079 68.13 37
    endloop
  endfacet
  facet normal 0 0 1
    outer loop
      vertex -5.25893 68.0146 37
      vertex -5.25893 16.9854 37
      vertex -4.79079 16.87 37
    endloop
  endfacet
  facet normal -0 0 1
    outer loop
      vertex -5.74107 68.0146 37
      vertex -5.25893 16.9854 37
      vertex -5.25893 68.0146 37
    endloop
  endfacet
  facet normal 0 0 1
    outer loop
      vertex -5.74107 68.0146 37
      vertex -5.74107 16.9854 37
      vertex -5.25893 16.9854 37
    endloop
  endfacet
  facet normal 0 0 1
    outer loop
      vertex -6.20921 68.13 37
      vertex -5.74107 16.9854 37
      vertex -5.74107 68.0146 37
    endloop
  endfacet
  facet normal 0 0 1
    outer loop
      vertex -6.20921 68.13 37
      vertex -6.20921 16.87 37
      vertex -5.74107 16.9854 37
    endloop
  endfacet
  facet normal 0 0 1
    outer loop
      vertex -6.63613 68.354 37
      vertex -6.20921 16.87 37
      vertex -6.20921 68.13 37
    endloop
  endfacet
  facet normal 0 0 1
    outer loop
      vertex -6.63613 68.354 37
      vertex -6.63613 16.646 37
      vertex -6.20921 16.87 37
    endloop
  endfacet
  facet normal 0 0 1
    outer loop
      vertex -6.99702 68.6738 37
      vertex -6.63613 16.646 37
      vertex -6.63613 68.354 37
    endloop
  endfacet
  facet normal 0 0 1
    outer loop
      vertex -6.99702 68.6738 37
      vertex -6.99702 16.3262 37
      vertex -6.63613 16.646 37
    endloop
  endfacet
  facet normal 0 0 1
    outer loop
      vertex -7.27091 69.0706 37
      vertex -6.99702 16.3262 37
      vertex -6.99702 68.6738 37
    endloop
  endfacet
  facet normal 0 0 1
    outer loop
      vertex -7.27091 69.0706 37
      vertex -7.27091 15.9294 37
      vertex -6.99702 16.3262 37
    endloop
  endfacet
  facet normal 0 0 1
    outer loop
      vertex -7.44188 69.5214 37
      vertex -7.27091 15.9294 37
      vertex -7.27091 69.0706 37
    endloop
  endfacet
  facet normal 0 0 1
    outer loop
      vertex -7.44188 69.5214 37
      vertex -7.44188 15.4786 37
      vertex -7.27091 15.9294 37
    endloop
  endfacet
  facet normal 0 0 1
    outer loop
      vertex -11 87 37
      vertex -7.44188 69.5214 37
      vertex -7.5 70 37
    endloop
  endfacet
  facet normal 0 0 1
    outer loop
      vertex -7.44188 69.5214 37
      vertex -11 0 37
      vertex -7.44188 15.4786 37
    endloop
  endfacet
  facet normal 0 0 1
    outer loop
      vertex 8 87 37
      vertex 4 85 37
      vertex 8 85 37
    endloop
  endfacet
  facet normal 0 0 1
    outer loop
      vertex -3.55812 69.5214 37
      vertex 4 85 37
      vertex -3.5 70 37
    endloop
  endfacet
  facet normal 0 0 1
    outer loop
      vertex 4 85 37
      vertex -3.55812 70.4786 37
      vertex -3.5 70 37
    endloop
  endfacet
  facet normal 0 0 1
    outer loop
      vertex 4 85 37
      vertex -3.72909 70.9294 37
      vertex -3.55812 70.4786 37
    endloop
  endfacet
  facet normal 0 0 1
    outer loop
      vertex 4 85 37
      vertex -4.00298 71.3262 37
      vertex -3.72909 70.9294 37
    endloop
  endfacet
  facet normal 0 0 1
    outer loop
      vertex 4 85 37
      vertex -4.36387 71.646 37
      vertex -4.00298 71.3262 37
    endloop
  endfacet
  facet normal 0 0 1
    outer loop
      vertex 4 85 37
      vertex -4.79079 71.87 37
      vertex -4.36387 71.646 37
    endloop
  endfacet
  facet normal 0 0 1
    outer loop
      vertex 4 85 37
      vertex -5.25893 71.9854 37
      vertex -4.79079 71.87 37
    endloop
  endfacet
  facet normal 0 0 1
    outer loop
      vertex -11 87 37
      vertex -5.25893 71.9854 37
      vertex 4 85 37
    endloop
  endfacet
  facet normal 0 0 1
    outer loop
      vertex -5.25893 71.9854 37
      vertex -11 87 37
      vertex -5.74107 71.9854 37
    endloop
  endfacet
  facet normal 0 0 1
    outer loop
      vertex -5.74107 71.9854 37
      vertex -11 87 37
      vertex -6.20921 71.87 37
    endloop
  endfacet
  facet normal 0 0 1
    outer loop
      vertex -6.20921 71.87 37
      vertex -11 87 37
      vertex -6.63613 71.646 37
    endloop
  endfacet
  facet normal 0 0 1
    outer loop
      vertex -7.44188 69.5214 37
      vertex -11 87 37
      vertex -11 0 37
    endloop
  endfacet
  facet normal 0 0 1
    outer loop
      vertex -7.44188 70.4786 37
      vertex -11 87 37
      vertex -7.5 70 37
    endloop
  endfacet
  facet normal 0 0 1
    outer loop
      vertex -7.27091 70.9294 37
      vertex -11 87 37
      vertex -7.44188 70.4786 37
    endloop
  endfacet
  facet normal 0 0 1
    outer loop
      vertex -6.99702 71.3262 37
      vertex -11 87 37
      vertex -7.27091 70.9294 37
    endloop
  endfacet
  facet normal 0 0 1
    outer loop
      vertex -6.63613 71.646 37
      vertex -11 87 37
      vertex -6.99702 71.3262 37
    endloop
  endfacet
  facet normal -0 0 1
    outer loop
      vertex -11 87 37
      vertex 4 85 37
      vertex 8 87 37
    endloop
  endfacet
  facet normal 0 0 1
    outer loop
      vertex 4 85 37
      vertex -3.55812 69.5214 37
      vertex 4 0 37
    endloop
  endfacet
  facet normal -0 0 1
    outer loop
      vertex -3.55812 14.5214 37
      vertex 4 0 37
      vertex -3.5 15 37
    endloop
  endfacet
  facet normal -0 0 1
    outer loop
      vertex -3.72909 14.0706 37
      vertex 4 0 37
      vertex -3.55812 14.5214 37
    endloop
  endfacet
  facet normal -0 0 1
    outer loop
      vertex -4.00298 13.6738 37
      vertex 4 0 37
      vertex -3.72909 14.0706 37
    endloop
  endfacet
  facet normal -0 0 1
    outer loop
      vertex -4.36387 13.354 37
      vertex 4 0 37
      vertex -4.00298 13.6738 37
    endloop
  endfacet
  facet normal -0 0 1
    outer loop
      vertex -4.79079 13.13 37
      vertex 4 0 37
      vertex -4.36387 13.354 37
    endloop
  endfacet
  facet normal -0 0 1
    outer loop
      vertex -5.25893 13.0146 37
      vertex 4 0 37
      vertex -4.79079 13.13 37
    endloop
  endfacet
  facet normal 0 0 1
    outer loop
      vertex -11 0 37
      vertex -5.25893 13.0146 37
      vertex -5.74107 13.0146 37
    endloop
  endfacet
  facet normal 0 0 1
    outer loop
      vertex -11 0 37
      vertex -5.74107 13.0146 37
      vertex -6.20921 13.13 37
    endloop
  endfacet
  facet normal 0 0 1
    outer loop
      vertex -11 0 37
      vertex -6.20921 13.13 37
      vertex -6.63613 13.354 37
    endloop
  endfacet
  facet normal 0 0 1
    outer loop
      vertex -11 0 37
      vertex -6.63613 13.354 37
      vertex -6.99702 13.6738 37
    endloop
  endfacet
  facet normal 0 0 1
    outer loop
      vertex -5.25893 13.0146 37
      vertex -11 0 37
      vertex 4 0 37
    endloop
  endfacet
  facet normal 0 0 1
    outer loop
      vertex -7.27091 14.0706 37
      vertex -11 0 37
      vertex -6.99702 13.6738 37
    endloop
  endfacet
  facet normal 0 0 1
    outer loop
      vertex -7.44188 14.5214 37
      vertex -11 0 37
      vertex -7.27091 14.0706 37
    endloop
  endfacet
  facet normal 0 0 1
    outer loop
      vertex -7.5 15 37
      vertex -11 0 37
      vertex -7.44188 14.5214 37
    endloop
  endfacet
  facet normal 0 0 1
    outer loop
      vertex -7.44188 15.4786 37
      vertex -11 0 37
      vertex -7.5 15 37
    endloop
  endfacet
  facet normal 0 0 -1
    outer loop
      vertex -3.55812 69.5214 33
      vertex 0 0 33
      vertex -3.55812 15.4786 33
    endloop
  endfacet
  facet normal 0 0 -1
    outer loop
      vertex 0 0 33
      vertex -3.55812 69.5214 33
      vertex -3.5 70 33
    endloop
  endfacet
  facet normal 0 0 -1
    outer loop
      vertex -3.72909 15.9294 33
      vertex -3.55812 69.5214 33
      vertex -3.55812 15.4786 33
    endloop
  endfacet
  facet normal 0 0 -1
    outer loop
      vertex -3.72909 15.9294 33
      vertex -3.72909 69.0706 33
      vertex -3.55812 69.5214 33
    endloop
  endfacet
  facet normal 0 0 -1
    outer loop
      vertex -4.00298 16.3262 33
      vertex -3.72909 69.0706 33
      vertex -3.72909 15.9294 33
    endloop
  endfacet
  facet normal 0 0 -1
    outer loop
      vertex -4.00298 16.3262 33
      vertex -4.00298 68.6738 33
      vertex -3.72909 69.0706 33
    endloop
  endfacet
  facet normal 0 0 -1
    outer loop
      vertex -4.36387 16.646 33
      vertex -4.00298 68.6738 33
      vertex -4.00298 16.3262 33
    endloop
  endfacet
  facet normal 0 0 -1
    outer loop
      vertex -4.36387 16.646 33
      vertex -4.36387 68.354 33
      vertex -4.00298 68.6738 33
    endloop
  endfacet
  facet normal 0 0 -1
    outer loop
      vertex -4.79079 16.87 33
      vertex -4.36387 68.354 33
      vertex -4.36387 16.646 33
    endloop
  endfacet
  facet normal 0 0 -1
    outer loop
      vertex -4.79079 16.87 33
      vertex -4.79079 68.13 33
      vertex -4.36387 68.354 33
    endloop
  endfacet
  facet normal 0 0 -1
    outer loop
      vertex -5.25893 16.9854 33
      vertex -4.79079 68.13 33
      vertex -4.79079 16.87 33
    endloop
  endfacet
  facet normal 0 0 -1
    outer loop
      vertex -5.25893 16.9854 33
      vertex -5.25893 68.0146 33
      vertex -4.79079 68.13 33
    endloop
  endfacet
  facet normal 0 0 -1
    outer loop
      vertex -5.74107 16.9854 33
      vertex -5.25893 68.0146 33
      vertex -5.25893 16.9854 33
    endloop
  endfacet
  facet normal 0 0 -1
    outer loop
      vertex -5.74107 16.9854 33
      vertex -5.74107 68.0146 33
      vertex -5.25893 68.0146 33
    endloop
  endfacet
  facet normal 0 0 -1
    outer loop
      vertex -6.20921 16.87 33
      vertex -5.74107 68.0146 33
      vertex -5.74107 16.9854 33
    endloop
  endfacet
  facet normal 0 0 -1
    outer loop
      vertex -6.20921 16.87 33
      vertex -6.20921 68.13 33
      vertex -5.74107 68.0146 33
    endloop
  endfacet
  facet normal 0 0 -1
    outer loop
      vertex -6.63613 16.646 33
      vertex -6.20921 68.13 33
      vertex -6.20921 16.87 33
    endloop
  endfacet
  facet normal 0 0 -1
    outer loop
      vertex -6.63613 16.646 33
      vertex -6.63613 68.354 33
      vertex -6.20921 68.13 33
    endloop
  endfacet
  facet normal 0 0 -1
    outer loop
      vertex -6.99702 16.3262 33
      vertex -6.63613 68.354 33
      vertex -6.63613 16.646 33
    endloop
  endfacet
  facet normal 0 0 -1
    outer loop
      vertex -6.99702 16.3262 33
      vertex -6.99702 68.6738 33
      vertex -6.63613 68.354 33
    endloop
  endfacet
  facet normal 0 0 -1
    outer loop
      vertex -7.27091 15.9294 33
      vertex -6.99702 68.6738 33
      vertex -6.99702 16.3262 33
    endloop
  endfacet
  facet normal 0 0 -1
    outer loop
      vertex -7.27091 15.9294 33
      vertex -7.27091 69.0706 33
      vertex -6.99702 68.6738 33
    endloop
  endfacet
  facet normal 0 0 -1
    outer loop
      vertex -7.44188 15.4786 33
      vertex -7.27091 69.0706 33
      vertex -7.27091 15.9294 33
    endloop
  endfacet
  facet normal 0 0 -1
    outer loop
      vertex -7.44188 15.4786 33
      vertex -7.44188 69.5214 33
      vertex -7.27091 69.0706 33
    endloop
  endfacet
  facet normal 0 0 -1
    outer loop
      vertex -11 0 33
      vertex -7.44188 15.4786 33
      vertex -7.5 15 33
    endloop
  endfacet
  facet normal -0 0 -1
    outer loop
      vertex -7.44188 15.4786 33
      vertex -11 0 33
      vertex -7.44188 69.5214 33
    endloop
  endfacet
  facet normal 0 0 -1
    outer loop
      vertex -3.55812 15.4786 33
      vertex 0 0 33
      vertex -3.5 15 33
    endloop
  endfacet
  facet normal 0 0 -1
    outer loop
      vertex 0 0 33
      vertex -3.55812 14.5214 33
      vertex -3.5 15 33
    endloop
  endfacet
  facet normal 0 0 -1
    outer loop
      vertex 0 0 33
      vertex -3.72909 14.0706 33
      vertex -3.55812 14.5214 33
    endloop
  endfacet
  facet normal 0 0 -1
    outer loop
      vertex 0 0 33
      vertex -4.00298 13.6738 33
      vertex -3.72909 14.0706 33
    endloop
  endfacet
  facet normal 0 0 -1
    outer loop
      vertex 0 0 33
      vertex -4.36387 13.354 33
      vertex -4.00298 13.6738 33
    endloop
  endfacet
  facet normal 0 0 -1
    outer loop
      vertex 0 0 33
      vertex -4.79079 13.13 33
      vertex -4.36387 13.354 33
    endloop
  endfacet
  facet normal 0 0 -1
    outer loop
      vertex 0 0 33
      vertex -5.25893 13.0146 33
      vertex -4.79079 13.13 33
    endloop
  endfacet
  facet normal 0 0 -1
    outer loop
      vertex 0 0 33
      vertex -5.74107 13.0146 33
      vertex -5.25893 13.0146 33
    endloop
  endfacet
  facet normal 0 0 -1
    outer loop
      vertex -11 0 33
      vertex -5.74107 13.0146 33
      vertex 0 0 33
    endloop
  endfacet
  facet normal -0 0 -1
    outer loop
      vertex -5.74107 13.0146 33
      vertex -11 0 33
      vertex -6.20921 13.13 33
    endloop
  endfacet
  facet normal -0 0 -1
    outer loop
      vertex -6.20921 13.13 33
      vertex -11 0 33
      vertex -6.63613 13.354 33
    endloop
  endfacet
  facet normal -0 0 -1
    outer loop
      vertex -6.63613 13.354 33
      vertex -11 0 33
      vertex -6.99702 13.6738 33
    endloop
  endfacet
  facet normal 0 0 -1
    outer loop
      vertex -11 87 33
      vertex -7.44188 69.5214 33
      vertex -11 0 33
    endloop
  endfacet
  facet normal -0 0 -1
    outer loop
      vertex -7.44188 14.5214 33
      vertex -11 0 33
      vertex -7.5 15 33
    endloop
  endfacet
  facet normal -0 0 -1
    outer loop
      vertex -7.27091 14.0706 33
      vertex -11 0 33
      vertex -7.44188 14.5214 33
    endloop
  endfacet
  facet normal -0 0 -1
    outer loop
      vertex -6.99702 13.6738 33
      vertex -11 0 33
      vertex -7.27091 14.0706 33
    endloop
  endfacet
  facet normal 0 0 -1
    outer loop
      vertex 0 0 33
      vertex -3.5 70 33
      vertex 0 87 33
    endloop
  endfacet
  facet normal 0 0 -1
    outer loop
      vertex -3.55812 70.4786 33
      vertex 0 87 33
      vertex -3.5 70 33
    endloop
  endfacet
  facet normal 0 0 -1
    outer loop
      vertex -3.72909 70.9294 33
      vertex 0 87 33
      vertex -3.55812 70.4786 33
    endloop
  endfacet
  facet normal 0 0 -1
    outer loop
      vertex -4.00298 71.3262 33
      vertex 0 87 33
      vertex -3.72909 70.9294 33
    endloop
  endfacet
  facet normal 0 0 -1
    outer loop
      vertex -4.36387 71.646 33
      vertex 0 87 33
      vertex -4.00298 71.3262 33
    endloop
  endfacet
  facet normal 0 0 -1
    outer loop
      vertex -4.79079 71.87 33
      vertex 0 87 33
      vertex -4.36387 71.646 33
    endloop
  endfacet
  facet normal 0 0 -1
    outer loop
      vertex -5.25893 71.9854 33
      vertex 0 87 33
      vertex -4.79079 71.87 33
    endloop
  endfacet
  facet normal 0 0 -1
    outer loop
      vertex -5.74107 71.9854 33
      vertex 0 87 33
      vertex -5.25893 71.9854 33
    endloop
  endfacet
  facet normal 0 0 -1
    outer loop
      vertex -11 87 33
      vertex -5.74107 71.9854 33
      vertex -6.20921 71.87 33
    endloop
  endfacet
  facet normal 0 0 -1
    outer loop
      vertex -11 87 33
      vertex -6.20921 71.87 33
      vertex -6.63613 71.646 33
    endloop
  endfacet
  facet normal 0 0 -1
    outer loop
      vertex -11 87 33
      vertex -6.63613 71.646 33
      vertex -6.99702 71.3262 33
    endloop
  endfacet
  facet normal 0 0 -1
    outer loop
      vertex -11 87 33
      vertex -6.99702 71.3262 33
      vertex -7.27091 70.9294 33
    endloop
  endfacet
  facet normal 0 0 -1
    outer loop
      vertex -5.74107 71.9854 33
      vertex -11 87 33
      vertex 0 87 33
    endloop
  endfacet
  facet normal 0 0 -1
    outer loop
      vertex -7.44188 70.4786 33
      vertex -11 87 33
      vertex -7.27091 70.9294 33
    endloop
  endfacet
  facet normal 0 0 -1
    outer loop
      vertex -7.5 70 33
      vertex -11 87 33
      vertex -7.44188 70.4786 33
    endloop
  endfacet
  facet normal 0 0 -1
    outer loop
      vertex -7.44188 69.5214 33
      vertex -11 87 33
      vertex -7.5 70 33
    endloop
  endfacet
  facet normal -1 0 0
    outer loop
      vertex -11 0 33
      vertex -11 87 37
      vertex -11 87 33
    endloop
  endfacet
  facet normal -1 -0 0
    outer loop
      vertex -11 87 37
      vertex -11 0 33
      vertex -11 0 37
    endloop
  endfacet
  facet normal 0 1 0
    outer loop
      vertex 118 87 33
      vertex 129 87 37
      vertex 129 87 33
    endloop
  endfacet
  facet normal 0 1 0
    outer loop
      vertex 129 87 37
      vertex 118 87 33
      vertex 110 87 37
    endloop
  endfacet
  facet normal 0 1 0
    outer loop
      vertex 118 87 33
      vertex 110 87 2
      vertex 110 87 37
    endloop
  endfacet
  facet normal 0 1 0
    outer loop
      vertex 110 87 2
      vertex 110 87 0
      vertex 8 87 2
    endloop
  endfacet
  facet normal 0 1 0
    outer loop
      vertex 118 87 33
      vertex 110 87 0
      vertex 110 87 2
    endloop
  endfacet
  facet normal 0 1 -0
    outer loop
      vertex 118 87 -35
      vertex 110 87 0
      vertex 118 87 33
    endloop
  endfacet
  facet normal 0 1 -0
    outer loop
      vertex 115 87 -35
      vertex 110 87 -33
      vertex 118 87 -35
    endloop
  endfacet
  facet normal 0 1 0
    outer loop
      vertex 110 87 0
      vertex 118 87 -35
      vertex 110 87 -33
    endloop
  endfacet
  facet normal 0 1 0
    outer loop
      vertex 8 87 37
      vertex 0 87 33
      vertex -11 87 37
    endloop
  endfacet
  facet normal 0 1 -0
    outer loop
      vertex 8 87 2
      vertex 0 87 33
      vertex 8 87 37
    endloop
  endfacet
  facet normal 0 1 0
    outer loop
      vertex 8 87 0
      vertex 8 87 2
      vertex 110 87 0
    endloop
  endfacet
  facet normal 0 1 -0
    outer loop
      vertex 8 87 0
      vertex 0 87 33
      vertex 8 87 2
    endloop
  endfacet
  facet normal 0 1 0
    outer loop
      vertex 0 87 -35
      vertex 8 87 0
      vertex 8 87 -33
    endloop
  endfacet
  facet normal 0 1 -0
    outer loop
      vertex 111 87 -35
      vertex 110 87 -33
      vertex 115 87 -35
    endloop
  endfacet
  facet normal 0 1 0
    outer loop
      vertex 102 87 -35
      vertex 110 87 -33
      vertex 111 87 -35
    endloop
  endfacet
  facet normal 0 1 0
    outer loop
      vertex 98 87 -35
      vertex 110 87 -33
      vertex 102 87 -35
    endloop
  endfacet
  facet normal 0 1 0
    outer loop
      vertex 110 87 -33
      vertex 98 87 -35
      vertex 8 87 -33
    endloop
  endfacet
  facet normal 0 1 -0
    outer loop
      vertex 11 87 -35
      vertex 8 87 -33
      vertex 98 87 -35
    endloop
  endfacet
  facet normal 0 1 0
    outer loop
      vertex 3 87 -35
      vertex 8 87 -33
      vertex 11 87 -35
    endloop
  endfacet
  facet normal 0 1 0
    outer loop
      vertex 0 87 -35
      vertex 8 87 -33
      vertex 3 87 -35
    endloop
  endfacet
  facet normal 0 1 0
    outer loop
      vertex 8 87 0
      vertex 0 87 -35
      vertex 0 87 33
    endloop
  endfacet
  facet normal 0 1 0
    outer loop
      vertex -11 87 37
      vertex 0 87 33
      vertex -11 87 33
    endloop
  endfacet
  facet normal 0 1 -0
    outer loop
      vertex 11 87 -61
      vertex 3 87 -35
      vertex 11 87 -35
    endloop
  endfacet
  facet normal 0 1 0
    outer loop
      vertex 3 87 -35
      vertex 11 87 -61
      vertex 3 87 -61
    endloop
  endfacet
  facet normal 0 1 -0
    outer loop
      vertex 102 87 -57
      vertex 98 87 -35
      vertex 102 87 -35
    endloop
  endfacet
  facet normal 0 1 0
    outer loop
      vertex 102 87 -57
      vertex 98 87 -61
      vertex 98 87 -35
    endloop
  endfacet
  facet normal 0 1 0
    outer loop
      vertex 98 87 -61
      vertex 102 87 -57
      vertex 115 87 -61
    endloop
  endfacet
  facet normal 0 1 0
    outer loop
      vertex 115 87 -35
      vertex 111 87 -57
      vertex 111 87 -35
    endloop
  endfacet
  facet normal 0 1 0
    outer loop
      vertex 111 87 -57
      vertex 115 87 -61
      vertex 102 87 -57
    endloop
  endfacet
  facet normal 0 1 -0
    outer loop
      vertex 115 87 -61
      vertex 111 87 -57
      vertex 115 87 -35
    endloop
  endfacet
  facet normal 0 -1 0
    outer loop
      vertex 0 0 33
      vertex -11 0 37
      vertex -11 0 33
    endloop
  endfacet
  facet normal 0 -1 0
    outer loop
      vertex -11 0 37
      vertex 0 0 33
      vertex 4 0 37
    endloop
  endfacet
  facet normal 0 -1 0
    outer loop
      vertex 0 0 33
      vertex 4 0 2
      vertex 4 0 37
    endloop
  endfacet
  facet normal 0 -1 0
    outer loop
      vertex 4 0 2
      vertex 4 0 0
      vertex 114 0 2
    endloop
  endfacet
  facet normal 0 -1 0
    outer loop
      vertex 0 0 33
      vertex 4 0 0
      vertex 4 0 2
    endloop
  endfacet
  facet normal 0 -1 0
    outer loop
      vertex 0 0 -35
      vertex 4 0 0
      vertex 0 0 33
    endloop
  endfacet
  facet normal 0 -1 -0
    outer loop
      vertex 4 0 -33
      vertex 0 0 -35
      vertex 114 0 -33
    endloop
  endfacet
  facet normal 0 -1 -0
    outer loop
      vertex 4 0 0
      vertex 0 0 -35
      vertex 4 0 -33
    endloop
  endfacet
  facet normal 0 -1 0
    outer loop
      vertex 114 0 37
      vertex 118 0 33
      vertex 129 0 37
    endloop
  endfacet
  facet normal 0 -1 0
    outer loop
      vertex 114 0 2
      vertex 118 0 33
      vertex 114 0 37
    endloop
  endfacet
  facet normal 0 -1 0
    outer loop
      vertex 114 0 0
      vertex 114 0 2
      vertex 4 0 0
    endloop
  endfacet
  facet normal 0 -1 0
    outer loop
      vertex 114 0 0
      vertex 118 0 33
      vertex 114 0 2
    endloop
  endfacet
  facet normal 0 -1 0
    outer loop
      vertex 118 0 -35
      vertex 114 0 0
      vertex 114 0 -33
    endloop
  endfacet
  facet normal 0 -1 0
    outer loop
      vertex 114 0 0
      vertex 118 0 -35
      vertex 118 0 33
    endloop
  endfacet
  facet normal 0 -1 0
    outer loop
      vertex 118 0 -35
      vertex 114 0 -33
      vertex 0 0 -35
    endloop
  endfacet
  facet normal 0 -1 -0
    outer loop
      vertex 129 0 37
      vertex 118 0 33
      vertex 129 0 33
    endloop
  endfacet
  facet normal -0.822985 0.568063 0
    outer loop
      vertex -4.00298 13.6738 33
      vertex -3.72909 14.0706 37
      vertex -3.72909 14.0706 33
    endloop
  endfacet
  facet normal -0.822985 0.568063 0
    outer loop
      vertex -3.72909 14.0706 37
      vertex -4.00298 13.6738 33
      vertex -4.00298 13.6738 37
    endloop
  endfacet
  facet normal -0.935013 -0.354612 0
    outer loop
      vertex -3.55812 15.4786 33
      vertex -3.72909 15.9294 37
      vertex -3.72909 15.9294 33
    endloop
  endfacet
  facet normal -0.935013 -0.354612 0
    outer loop
      vertex -3.72909 15.9294 37
      vertex -3.55812 15.4786 33
      vertex -3.55812 15.4786 37
    endloop
  endfacet
  facet normal -0.992707 -0.120552 0
    outer loop
      vertex -3.5 15 33
      vertex -3.55812 15.4786 37
      vertex -3.55812 15.4786 33
    endloop
  endfacet
  facet normal -0.992707 -0.120552 0
    outer loop
      vertex -3.55812 15.4786 37
      vertex -3.5 15 33
      vertex -3.5 15 37
    endloop
  endfacet
  facet normal 0.935013 -0.354612 0
    outer loop
      vertex -7.44188 15.4786 37
      vertex -7.27091 15.9294 33
      vertex -7.27091 15.9294 37
    endloop
  endfacet
  facet normal 0.935013 -0.354612 0
    outer loop
      vertex -7.27091 15.9294 33
      vertex -7.44188 15.4786 37
      vertex -7.44188 15.4786 33
    endloop
  endfacet
  facet normal 0.239343 0.970935 -0
    outer loop
      vertex -5.74107 13.0146 33
      vertex -6.20921 13.13 37
      vertex -5.74107 13.0146 37
    endloop
  endfacet
  facet normal 0.239343 0.970935 0
    outer loop
      vertex -6.20921 13.13 37
      vertex -5.74107 13.0146 33
      vertex -6.20921 13.13 33
    endloop
  endfacet
  facet normal -0.464618 0.885511 0
    outer loop
      vertex -4.36387 13.354 33
      vertex -4.79079 13.13 37
      vertex -4.36387 13.354 37
    endloop
  endfacet
  facet normal -0.464618 0.885511 0
    outer loop
      vertex -4.79079 13.13 37
      vertex -4.36387 13.354 33
      vertex -4.79079 13.13 33
    endloop
  endfacet
  facet normal 0.663215 -0.748429 0
    outer loop
      vertex -6.99702 16.3262 33
      vertex -6.63613 16.646 37
      vertex -6.99702 16.3262 37
    endloop
  endfacet
  facet normal 0.663215 -0.748429 0
    outer loop
      vertex -6.63613 16.646 37
      vertex -6.99702 16.3262 33
      vertex -6.63613 16.646 33
    endloop
  endfacet
  facet normal 0.239343 -0.970935 0
    outer loop
      vertex -6.20921 16.87 33
      vertex -5.74107 16.9854 37
      vertex -6.20921 16.87 37
    endloop
  endfacet
  facet normal 0.239343 -0.970935 0
    outer loop
      vertex -5.74107 16.9854 37
      vertex -6.20921 16.87 33
      vertex -5.74107 16.9854 33
    endloop
  endfacet
  facet normal -0.992707 0.120552 0
    outer loop
      vertex -3.55812 14.5214 33
      vertex -3.5 15 37
      vertex -3.5 15 33
    endloop
  endfacet
  facet normal -0.992707 0.120552 0
    outer loop
      vertex -3.5 15 37
      vertex -3.55812 14.5214 33
      vertex -3.55812 14.5214 37
    endloop
  endfacet
  facet normal -0.239343 -0.970935 0
    outer loop
      vertex -5.25893 16.9854 33
      vertex -4.79079 16.87 37
      vertex -5.25893 16.9854 37
    endloop
  endfacet
  facet normal -0.239343 -0.970935 -0
    outer loop
      vertex -4.79079 16.87 37
      vertex -5.25893 16.9854 33
      vertex -4.79079 16.87 33
    endloop
  endfacet
  facet normal 0.464618 0.885511 -0
    outer loop
      vertex -6.20921 13.13 33
      vertex -6.63613 13.354 37
      vertex -6.20921 13.13 37
    endloop
  endfacet
  facet normal 0.464618 0.885511 0
    outer loop
      vertex -6.63613 13.354 37
      vertex -6.20921 13.13 33
      vertex -6.63613 13.354 33
    endloop
  endfacet
  facet normal 0.992707 0.120552 0
    outer loop
      vertex -7.44188 14.5214 37
      vertex -7.5 15 33
      vertex -7.5 15 37
    endloop
  endfacet
  facet normal 0.992707 0.120552 0
    outer loop
      vertex -7.5 15 33
      vertex -7.44188 14.5214 37
      vertex -7.44188 14.5214 33
    endloop
  endfacet
  facet normal 0.822985 0.568063 0
    outer loop
      vertex -6.99702 13.6738 37
      vertex -7.27091 14.0706 33
      vertex -7.27091 14.0706 37
    endloop
  endfacet
  facet normal 0.822985 0.568063 0
    outer loop
      vertex -7.27091 14.0706 33
      vertex -6.99702 13.6738 37
      vertex -6.99702 13.6738 33
    endloop
  endfacet
  facet normal 0.992707 -0.120552 0
    outer loop
      vertex -7.5 15 37
      vertex -7.44188 15.4786 33
      vertex -7.44188 15.4786 37
    endloop
  endfacet
  facet normal 0.992707 -0.120552 0
    outer loop
      vertex -7.44188 15.4786 33
      vertex -7.5 15 37
      vertex -7.5 15 33
    endloop
  endfacet
  facet normal 0.464618 -0.885511 0
    outer loop
      vertex -6.63613 16.646 33
      vertex -6.20921 16.87 37
      vertex -6.63613 16.646 37
    endloop
  endfacet
  facet normal 0.464618 -0.885511 0
    outer loop
      vertex -6.20921 16.87 37
      vertex -6.63613 16.646 33
      vertex -6.20921 16.87 33
    endloop
  endfacet
  facet normal -0.663215 0.748429 0
    outer loop
      vertex -4.00298 13.6738 33
      vertex -4.36387 13.354 37
      vertex -4.00298 13.6738 37
    endloop
  endfacet
  facet normal -0.663215 0.748429 0
    outer loop
      vertex -4.36387 13.354 37
      vertex -4.00298 13.6738 33
      vertex -4.36387 13.354 33
    endloop
  endfacet
  facet normal -0.239343 0.970935 0
    outer loop
      vertex -4.79079 13.13 33
      vertex -5.25893 13.0146 37
      vertex -4.79079 13.13 37
    endloop
  endfacet
  facet normal -0.239343 0.970935 0
    outer loop
      vertex -5.25893 13.0146 37
      vertex -4.79079 13.13 33
      vertex -5.25893 13.0146 33
    endloop
  endfacet
  facet normal -0.935013 0.354612 0
    outer loop
      vertex -3.72909 14.0706 33
      vertex -3.55812 14.5214 37
      vertex -3.55812 14.5214 33
    endloop
  endfacet
  facet normal -0.935013 0.354612 0
    outer loop
      vertex -3.55812 14.5214 37
      vertex -3.72909 14.0706 33
      vertex -3.72909 14.0706 37
    endloop
  endfacet
  facet normal -0.464618 -0.885511 0
    outer loop
      vertex -4.79079 16.87 33
      vertex -4.36387 16.646 37
      vertex -4.79079 16.87 37
    endloop
  endfacet
  facet normal -0.464618 -0.885511 -0
    outer loop
      vertex -4.36387 16.646 37
      vertex -4.79079 16.87 33
      vertex -4.36387 16.646 33
    endloop
  endfacet
  facet normal 0.935013 0.354612 0
    outer loop
      vertex -7.27091 14.0706 37
      vertex -7.44188 14.5214 33
      vertex -7.44188 14.5214 37
    endloop
  endfacet
  facet normal 0.935013 0.354612 0
    outer loop
      vertex -7.44188 14.5214 33
      vertex -7.27091 14.0706 37
      vertex -7.27091 14.0706 33
    endloop
  endfacet
  facet normal -0.663215 -0.748429 0
    outer loop
      vertex -4.36387 16.646 33
      vertex -4.00298 16.3262 37
      vertex -4.36387 16.646 37
    endloop
  endfacet
  facet normal -0.663215 -0.748429 -0
    outer loop
      vertex -4.00298 16.3262 37
      vertex -4.36387 16.646 33
      vertex -4.00298 16.3262 33
    endloop
  endfacet
  facet normal 0 -1 0
    outer loop
      vertex -5.74107 16.9854 33
      vertex -5.25893 16.9854 37
      vertex -5.74107 16.9854 37
    endloop
  endfacet
  facet normal 0 -1 -0
    outer loop
      vertex -5.25893 16.9854 37
      vertex -5.74107 16.9854 33
      vertex -5.25893 16.9854 33
    endloop
  endfacet
  facet normal -0.822985 -0.568063 0
    outer loop
      vertex -3.72909 15.9294 33
      vertex -4.00298 16.3262 37
      vertex -4.00298 16.3262 33
    endloop
  endfacet
  facet normal -0.822985 -0.568063 0
    outer loop
      vertex -4.00298 16.3262 37
      vertex -3.72909 15.9294 33
      vertex -3.72909 15.9294 37
    endloop
  endfacet
  facet normal 0.822985 -0.568063 0
    outer loop
      vertex -7.27091 15.9294 37
      vertex -6.99702 16.3262 33
      vertex -6.99702 16.3262 37
    endloop
  endfacet
  facet normal 0.822985 -0.568063 0
    outer loop
      vertex -6.99702 16.3262 33
      vertex -7.27091 15.9294 37
      vertex -7.27091 15.9294 33
    endloop
  endfacet
  facet normal 0 1 -0
    outer loop
      vertex -5.25893 13.0146 33
      vertex -5.74107 13.0146 37
      vertex -5.25893 13.0146 37
    endloop
  endfacet
  facet normal 0 1 0
    outer loop
      vertex -5.74107 13.0146 37
      vertex -5.25893 13.0146 33
      vertex -5.74107 13.0146 33
    endloop
  endfacet
  facet normal 0.663215 0.748429 -0
    outer loop
      vertex -6.63613 13.354 33
      vertex -6.99702 13.6738 37
      vertex -6.63613 13.354 37
    endloop
  endfacet
  facet normal 0.663215 0.748429 0
    outer loop
      vertex -6.99702 13.6738 37
      vertex -6.63613 13.354 33
      vertex -6.99702 13.6738 33
    endloop
  endfacet
  facet normal -0.992707 -0.120552 0
    outer loop
      vertex -3.5 70 33
      vertex -3.55812 70.4786 37
      vertex -3.55812 70.4786 33
    endloop
  endfacet
  facet normal -0.992707 -0.120552 0
    outer loop
      vertex -3.55812 70.4786 37
      vertex -3.5 70 33
      vertex -3.5 70 37
    endloop
  endfacet
  facet normal -0.935013 -0.354612 0
    outer loop
      vertex -3.55812 70.4786 33
      vertex -3.72909 70.9294 37
      vertex -3.72909 70.9294 33
    endloop
  endfacet
  facet normal -0.935013 -0.354612 0
    outer loop
      vertex -3.72909 70.9294 37
      vertex -3.55812 70.4786 33
      vertex -3.55812 70.4786 37
    endloop
  endfacet
  facet normal 0.992707 -0.120552 0
    outer loop
      vertex -7.5 70 37
      vertex -7.44188 70.4786 33
      vertex -7.44188 70.4786 37
    endloop
  endfacet
  facet normal 0.992707 -0.120552 0
    outer loop
      vertex -7.44188 70.4786 33
      vertex -7.5 70 37
      vertex -7.5 70 33
    endloop
  endfacet
  facet normal -0.464618 0.885511 0
    outer loop
      vertex -4.36387 68.354 33
      vertex -4.79079 68.13 37
      vertex -4.36387 68.354 37
    endloop
  endfacet
  facet normal -0.464618 0.885511 0
    outer loop
      vertex -4.79079 68.13 37
      vertex -4.36387 68.354 33
      vertex -4.79079 68.13 33
    endloop
  endfacet
  facet normal 0.464618 0.885511 -0
    outer loop
      vertex -6.20921 68.13 33
      vertex -6.63613 68.354 37
      vertex -6.20921 68.13 37
    endloop
  endfacet
  facet normal 0.464618 0.885511 0
    outer loop
      vertex -6.63613 68.354 37
      vertex -6.20921 68.13 33
      vertex -6.63613 68.354 33
    endloop
  endfacet
  facet normal 0.663215 -0.748429 0
    outer loop
      vertex -6.99702 71.3262 33
      vertex -6.63613 71.646 37
      vertex -6.99702 71.3262 37
    endloop
  endfacet
  facet normal 0.663215 -0.748429 0
    outer loop
      vertex -6.63613 71.646 37
      vertex -6.99702 71.3262 33
      vertex -6.63613 71.646 33
    endloop
  endfacet
  facet normal 0 -1 0
    outer loop
      vertex -5.74107 71.9854 33
      vertex -5.25893 71.9854 37
      vertex -5.74107 71.9854 37
    endloop
  endfacet
  facet normal 0 -1 -0
    outer loop
      vertex -5.25893 71.9854 37
      vertex -5.74107 71.9854 33
      vertex -5.25893 71.9854 33
    endloop
  endfacet
  facet normal -0.822985 -0.568063 0
    outer loop
      vertex -3.72909 70.9294 33
      vertex -4.00298 71.3262 37
      vertex -4.00298 71.3262 33
    endloop
  endfacet
  facet normal -0.822985 -0.568063 0
    outer loop
      vertex -4.00298 71.3262 37
      vertex -3.72909 70.9294 33
      vertex -3.72909 70.9294 37
    endloop
  endfacet
  facet normal 0.935013 -0.354612 0
    outer loop
      vertex -7.44188 70.4786 37
      vertex -7.27091 70.9294 33
      vertex -7.27091 70.9294 37
    endloop
  endfacet
  facet normal 0.935013 -0.354612 0
    outer loop
      vertex -7.27091 70.9294 33
      vertex -7.44188 70.4786 37
      vertex -7.44188 70.4786 33
    endloop
  endfacet
  facet normal -0.239343 -0.970935 0
    outer loop
      vertex -5.25893 71.9854 33
      vertex -4.79079 71.87 37
      vertex -5.25893 71.9854 37
    endloop
  endfacet
  facet normal -0.239343 -0.970935 -0
    outer loop
      vertex -4.79079 71.87 37
      vertex -5.25893 71.9854 33
      vertex -4.79079 71.87 33
    endloop
  endfacet
  facet normal 0.935013 0.354612 0
    outer loop
      vertex -7.27091 69.0706 37
      vertex -7.44188 69.5214 33
      vertex -7.44188 69.5214 37
    endloop
  endfacet
  facet normal 0.935013 0.354612 0
    outer loop
      vertex -7.44188 69.5214 33
      vertex -7.27091 69.0706 37
      vertex -7.27091 69.0706 33
    endloop
  endfacet
  facet normal -0.663215 -0.748429 0
    outer loop
      vertex -4.36387 71.646 33
      vertex -4.00298 71.3262 37
      vertex -4.36387 71.646 37
    endloop
  endfacet
  facet normal -0.663215 -0.748429 -0
    outer loop
      vertex -4.00298 71.3262 37
      vertex -4.36387 71.646 33
      vertex -4.00298 71.3262 33
    endloop
  endfacet
  facet normal 0.822985 0.568063 0
    outer loop
      vertex -6.99702 68.6738 37
      vertex -7.27091 69.0706 33
      vertex -7.27091 69.0706 37
    endloop
  endfacet
  facet normal 0.822985 0.568063 0
    outer loop
      vertex -7.27091 69.0706 33
      vertex -6.99702 68.6738 37
      vertex -6.99702 68.6738 33
    endloop
  endfacet
  facet normal -0.239343 0.970935 0
    outer loop
      vertex -4.79079 68.13 33
      vertex -5.25893 68.0146 37
      vertex -4.79079 68.13 37
    endloop
  endfacet
  facet normal -0.239343 0.970935 0
    outer loop
      vertex -5.25893 68.0146 37
      vertex -4.79079 68.13 33
      vertex -5.25893 68.0146 33
    endloop
  endfacet
  facet normal 0.464618 -0.885511 0
    outer loop
      vertex -6.63613 71.646 33
      vertex -6.20921 71.87 37
      vertex -6.63613 71.646 37
    endloop
  endfacet
  facet normal 0.464618 -0.885511 0
    outer loop
      vertex -6.20921 71.87 37
      vertex -6.63613 71.646 33
      vertex -6.20921 71.87 33
    endloop
  endfacet
  facet normal 0.992707 0.120552 0
    outer loop
      vertex -7.44188 69.5214 37
      vertex -7.5 70 33
      vertex -7.5 70 37
    endloop
  endfacet
  facet normal 0.992707 0.120552 0
    outer loop
      vertex -7.5 70 33
      vertex -7.44188 69.5214 37
      vertex -7.44188 69.5214 33
    endloop
  endfacet
  facet normal 0.822985 -0.568063 0
    outer loop
      vertex -7.27091 70.9294 37
      vertex -6.99702 71.3262 33
      vertex -6.99702 71.3262 37
    endloop
  endfacet
  facet normal 0.822985 -0.568063 0
    outer loop
      vertex -6.99702 71.3262 33
      vertex -7.27091 70.9294 37
      vertex -7.27091 70.9294 33
    endloop
  endfacet
  facet normal -0.663215 0.748429 0
    outer loop
      vertex -4.00298 68.6738 33
      vertex -4.36387 68.354 37
      vertex -4.00298 68.6738 37
    endloop
  endfacet
  facet normal -0.663215 0.748429 0
    outer loop
      vertex -4.36387 68.354 37
      vertex -4.00298 68.6738 33
      vertex -4.36387 68.354 33
    endloop
  endfacet
  facet normal -0.935013 0.354612 0
    outer loop
      vertex -3.72909 69.0706 33
      vertex -3.55812 69.5214 37
      vertex -3.55812 69.5214 33
    endloop
  endfacet
  facet normal -0.935013 0.354612 0
    outer loop
      vertex -3.55812 69.5214 37
      vertex -3.72909 69.0706 33
      vertex -3.72909 69.0706 37
    endloop
  endfacet
  facet normal 0.663215 0.748429 -0
    outer loop
      vertex -6.63613 68.354 33
      vertex -6.99702 68.6738 37
      vertex -6.63613 68.354 37
    endloop
  endfacet
  facet normal 0.663215 0.748429 0
    outer loop
      vertex -6.99702 68.6738 37
      vertex -6.63613 68.354 33
      vertex -6.99702 68.6738 33
    endloop
  endfacet
  facet normal -0.464618 -0.885511 0
    outer loop
      vertex -4.79079 71.87 33
      vertex -4.36387 71.646 37
      vertex -4.79079 71.87 37
    endloop
  endfacet
  facet normal -0.464618 -0.885511 -0
    outer loop
      vertex -4.36387 71.646 37
      vertex -4.79079 71.87 33
      vertex -4.36387 71.646 33
    endloop
  endfacet
  facet normal 0.239343 0.970935 -0
    outer loop
      vertex -5.74107 68.0146 33
      vertex -6.20921 68.13 37
      vertex -5.74107 68.0146 37
    endloop
  endfacet
  facet normal 0.239343 0.970935 0
    outer loop
      vertex -6.20921 68.13 37
      vertex -5.74107 68.0146 33
      vertex -6.20921 68.13 33
    endloop
  endfacet
  facet normal -0.992707 0.120552 0
    outer loop
      vertex -3.55812 69.5214 33
      vertex -3.5 70 37
      vertex -3.5 70 33
    endloop
  endfacet
  facet normal -0.992707 0.120552 0
    outer loop
      vertex -3.5 70 37
      vertex -3.55812 69.5214 33
      vertex -3.55812 69.5214 37
    endloop
  endfacet
  facet normal -0.822985 0.568063 0
    outer loop
      vertex -4.00298 68.6738 33
      vertex -3.72909 69.0706 37
      vertex -3.72909 69.0706 33
    endloop
  endfacet
  facet normal -0.822985 0.568063 0
    outer loop
      vertex -3.72909 69.0706 37
      vertex -4.00298 68.6738 33
      vertex -4.00298 68.6738 37
    endloop
  endfacet
  facet normal 0.239343 -0.970935 0
    outer loop
      vertex -6.20921 71.87 33
      vertex -5.74107 71.9854 37
      vertex -6.20921 71.87 37
    endloop
  endfacet
  facet normal 0.239343 -0.970935 0
    outer loop
      vertex -5.74107 71.9854 37
      vertex -6.20921 71.87 33
      vertex -5.74107 71.9854 33
    endloop
  endfacet
  facet normal 0 1 -0
    outer loop
      vertex -5.25893 68.0146 33
      vertex -5.74107 68.0146 37
      vertex -5.25893 68.0146 37
    endloop
  endfacet
  facet normal 0 1 0
    outer loop
      vertex -5.74107 68.0146 37
      vertex -5.25893 68.0146 33
      vertex -5.74107 68.0146 33
    endloop
  endfacet
  facet normal 1 -0 0
    outer loop
      vertex 129 0 37
      vertex 129 87 33
      vertex 129 87 37
    endloop
  endfacet
  facet normal 1 0 0
    outer loop
      vertex 129 87 33
      vertex 129 0 37
      vertex 129 0 33
    endloop
  endfacet
  facet normal 0 0 -1
    outer loop
      vertex 125.442 69.5214 33
      vertex 129 0 33
      vertex 125.442 15.4786 33
    endloop
  endfacet
  facet normal 0 0 -1
    outer loop
      vertex 129 0 33
      vertex 125.442 69.5214 33
      vertex 125.5 70 33
    endloop
  endfacet
  facet normal 0 0 -1
    outer loop
      vertex 125.271 15.9294 33
      vertex 125.442 69.5214 33
      vertex 125.442 15.4786 33
    endloop
  endfacet
  facet normal 0 0 -1
    outer loop
      vertex 125.271 15.9294 33
      vertex 125.271 69.0706 33
      vertex 125.442 69.5214 33
    endloop
  endfacet
  facet normal 0 0 -1
    outer loop
      vertex 124.997 16.3262 33
      vertex 125.271 69.0706 33
      vertex 125.271 15.9294 33
    endloop
  endfacet
  facet normal 0 0 -1
    outer loop
      vertex 124.997 16.3262 33
      vertex 124.997 68.6738 33
      vertex 125.271 69.0706 33
    endloop
  endfacet
  facet normal 0 0 -1
    outer loop
      vertex 124.636 16.646 33
      vertex 124.997 68.6738 33
      vertex 124.997 16.3262 33
    endloop
  endfacet
  facet normal 0 0 -1
    outer loop
      vertex 124.636 16.646 33
      vertex 124.636 68.354 33
      vertex 124.997 68.6738 33
    endloop
  endfacet
  facet normal 0 0 -1
    outer loop
      vertex 124.209 16.87 33
      vertex 124.636 68.354 33
      vertex 124.636 16.646 33
    endloop
  endfacet
  facet normal 0 0 -1
    outer loop
      vertex 124.209 16.87 33
      vertex 124.209 68.13 33
      vertex 124.636 68.354 33
    endloop
  endfacet
  facet normal 0 0 -1
    outer loop
      vertex 123.741 16.9854 33
      vertex 124.209 68.13 33
      vertex 124.209 16.87 33
    endloop
  endfacet
  facet normal 0 0 -1
    outer loop
      vertex 123.741 16.9854 33
      vertex 123.741 68.0146 33
      vertex 124.209 68.13 33
    endloop
  endfacet
  facet normal 0 0 -1
    outer loop
      vertex 123.259 16.9854 33
      vertex 123.741 68.0146 33
      vertex 123.741 16.9854 33
    endloop
  endfacet
  facet normal 0 0 -1
    outer loop
      vertex 123.259 16.9854 33
      vertex 123.259 68.0146 33
      vertex 123.741 68.0146 33
    endloop
  endfacet
  facet normal 0 0 -1
    outer loop
      vertex 122.791 16.87 33
      vertex 123.259 68.0146 33
      vertex 123.259 16.9854 33
    endloop
  endfacet
  facet normal 0 0 -1
    outer loop
      vertex 122.791 16.87 33
      vertex 122.791 68.13 33
      vertex 123.259 68.0146 33
    endloop
  endfacet
  facet normal 0 0 -1
    outer loop
      vertex 122.364 16.646 33
      vertex 122.791 68.13 33
      vertex 122.791 16.87 33
    endloop
  endfacet
  facet normal 0 0 -1
    outer loop
      vertex 122.364 16.646 33
      vertex 122.364 68.354 33
      vertex 122.791 68.13 33
    endloop
  endfacet
  facet normal 0 0 -1
    outer loop
      vertex 122.003 16.3262 33
      vertex 122.364 68.354 33
      vertex 122.364 16.646 33
    endloop
  endfacet
  facet normal 0 0 -1
    outer loop
      vertex 122.003 16.3262 33
      vertex 122.003 68.6738 33
      vertex 122.364 68.354 33
    endloop
  endfacet
  facet normal 0 0 -1
    outer loop
      vertex 121.729 15.9294 33
      vertex 122.003 68.6738 33
      vertex 122.003 16.3262 33
    endloop
  endfacet
  facet normal 0 0 -1
    outer loop
      vertex 121.729 15.9294 33
      vertex 121.729 69.0706 33
      vertex 122.003 68.6738 33
    endloop
  endfacet
  facet normal 0 0 -1
    outer loop
      vertex 121.558 15.4786 33
      vertex 121.729 69.0706 33
      vertex 121.729 15.9294 33
    endloop
  endfacet
  facet normal 0 0 -1
    outer loop
      vertex 121.558 15.4786 33
      vertex 121.558 69.5214 33
      vertex 121.729 69.0706 33
    endloop
  endfacet
  facet normal 0 0 -1
    outer loop
      vertex 118 0 33
      vertex 121.558 15.4786 33
      vertex 121.5 15 33
    endloop
  endfacet
  facet normal -0 0 -1
    outer loop
      vertex 121.558 15.4786 33
      vertex 118 0 33
      vertex 121.558 69.5214 33
    endloop
  endfacet
  facet normal 0 0 -1
    outer loop
      vertex 125.442 15.4786 33
      vertex 129 0 33
      vertex 125.5 15 33
    endloop
  endfacet
  facet normal 0 0 -1
    outer loop
      vertex 129 0 33
      vertex 125.442 14.5214 33
      vertex 125.5 15 33
    endloop
  endfacet
  facet normal 0 0 -1
    outer loop
      vertex 129 0 33
      vertex 125.271 14.0706 33
      vertex 125.442 14.5214 33
    endloop
  endfacet
  facet normal 0 0 -1
    outer loop
      vertex 129 0 33
      vertex 124.997 13.6738 33
      vertex 125.271 14.0706 33
    endloop
  endfacet
  facet normal 0 0 -1
    outer loop
      vertex 129 0 33
      vertex 124.636 13.354 33
      vertex 124.997 13.6738 33
    endloop
  endfacet
  facet normal 0 0 -1
    outer loop
      vertex 129 0 33
      vertex 124.209 13.13 33
      vertex 124.636 13.354 33
    endloop
  endfacet
  facet normal 0 0 -1
    outer loop
      vertex 129 0 33
      vertex 123.741 13.0146 33
      vertex 124.209 13.13 33
    endloop
  endfacet
  facet normal 0 0 -1
    outer loop
      vertex 129 0 33
      vertex 123.259 13.0146 33
      vertex 123.741 13.0146 33
    endloop
  endfacet
  facet normal 0 0 -1
    outer loop
      vertex 118 0 33
      vertex 123.259 13.0146 33
      vertex 129 0 33
    endloop
  endfacet
  facet normal -0 0 -1
    outer loop
      vertex 123.259 13.0146 33
      vertex 118 0 33
      vertex 122.791 13.13 33
    endloop
  endfacet
  facet normal -0 0 -1
    outer loop
      vertex 122.791 13.13 33
      vertex 118 0 33
      vertex 122.364 13.354 33
    endloop
  endfacet
  facet normal -0 0 -1
    outer loop
      vertex 122.364 13.354 33
      vertex 118 0 33
      vertex 122.003 13.6738 33
    endloop
  endfacet
  facet normal 0 0 -1
    outer loop
      vertex 118 87 33
      vertex 121.558 69.5214 33
      vertex 118 0 33
    endloop
  endfacet
  facet normal -0 0 -1
    outer loop
      vertex 121.558 14.5214 33
      vertex 118 0 33
      vertex 121.5 15 33
    endloop
  endfacet
  facet normal -0 0 -1
    outer loop
      vertex 121.729 14.0706 33
      vertex 118 0 33
      vertex 121.558 14.5214 33
    endloop
  endfacet
  facet normal -0 0 -1
    outer loop
      vertex 122.003 13.6738 33
      vertex 118 0 33
      vertex 121.729 14.0706 33
    endloop
  endfacet
  facet normal 0 0 -1
    outer loop
      vertex 129 0 33
      vertex 125.5 70 33
      vertex 129 87 33
    endloop
  endfacet
  facet normal 0 0 -1
    outer loop
      vertex 125.442 70.4786 33
      vertex 129 87 33
      vertex 125.5 70 33
    endloop
  endfacet
  facet normal 0 0 -1
    outer loop
      vertex 125.271 70.9294 33
      vertex 129 87 33
      vertex 125.442 70.4786 33
    endloop
  endfacet
  facet normal 0 0 -1
    outer loop
      vertex 124.997 71.3262 33
      vertex 129 87 33
      vertex 125.271 70.9294 33
    endloop
  endfacet
  facet normal 0 0 -1
    outer loop
      vertex 124.636 71.646 33
      vertex 129 87 33
      vertex 124.997 71.3262 33
    endloop
  endfacet
  facet normal 0 0 -1
    outer loop
      vertex 124.209 71.87 33
      vertex 129 87 33
      vertex 124.636 71.646 33
    endloop
  endfacet
  facet normal 0 0 -1
    outer loop
      vertex 123.741 71.9854 33
      vertex 129 87 33
      vertex 124.209 71.87 33
    endloop
  endfacet
  facet normal 0 0 -1
    outer loop
      vertex 123.259 71.9854 33
      vertex 129 87 33
      vertex 123.741 71.9854 33
    endloop
  endfacet
  facet normal 0 0 -1
    outer loop
      vertex 118 87 33
      vertex 123.259 71.9854 33
      vertex 122.791 71.87 33
    endloop
  endfacet
  facet normal 0 0 -1
    outer loop
      vertex 118 87 33
      vertex 122.791 71.87 33
      vertex 122.364 71.646 33
    endloop
  endfacet
  facet normal 0 0 -1
    outer loop
      vertex 118 87 33
      vertex 122.364 71.646 33
      vertex 122.003 71.3262 33
    endloop
  endfacet
  facet normal 0 0 -1
    outer loop
      vertex 118 87 33
      vertex 122.003 71.3262 33
      vertex 121.729 70.9294 33
    endloop
  endfacet
  facet normal 0 0 -1
    outer loop
      vertex 123.259 71.9854 33
      vertex 118 87 33
      vertex 129 87 33
    endloop
  endfacet
  facet normal 0 0 -1
    outer loop
      vertex 121.558 70.4786 33
      vertex 118 87 33
      vertex 121.729 70.9294 33
    endloop
  endfacet
  facet normal 0 0 -1
    outer loop
      vertex 121.5 70 33
      vertex 118 87 33
      vertex 121.558 70.4786 33
    endloop
  endfacet
  facet normal 0 0 -1
    outer loop
      vertex 121.558 69.5214 33
      vertex 118 87 33
      vertex 121.5 70 33
    endloop
  endfacet
  facet normal 1 -0 0
    outer loop
      vertex 118 0 33
      vertex 118 87 -35
      vertex 118 87 33
    endloop
  endfacet
  facet normal 1 0 0
    outer loop
      vertex 118 87 -35
      vertex 118 0 33
      vertex 118 0 -35
    endloop
  endfacet
  facet normal -0.822878 0.568217 0
    outer loop
      vertex 124.997 13.6738 33
      vertex 125.271 14.0706 37
      vertex 125.271 14.0706 33
    endloop
  endfacet
  facet normal -0.822878 0.568217 0
    outer loop
      vertex 125.271 14.0706 37
      vertex 124.997 13.6738 33
      vertex 124.997 13.6738 37
    endloop
  endfacet
  facet normal -0.934993 -0.354667 0
    outer loop
      vertex 125.442 15.4786 33
      vertex 125.271 15.9294 37
      vertex 125.271 15.9294 33
    endloop
  endfacet
  facet normal -0.934993 -0.354667 0
    outer loop
      vertex 125.271 15.9294 37
      vertex 125.442 15.4786 33
      vertex 125.442 15.4786 37
    endloop
  endfacet
  facet normal -0.992737 -0.120307 0
    outer loop
      vertex 125.5 15 33
      vertex 125.442 15.4786 37
      vertex 125.442 15.4786 33
    endloop
  endfacet
  facet normal -0.992737 -0.120307 0
    outer loop
      vertex 125.442 15.4786 37
      vertex 125.5 15 33
      vertex 125.5 15 37
    endloop
  endfacet
  facet normal 0.934993 -0.354667 0
    outer loop
      vertex 121.558 15.4786 37
      vertex 121.729 15.9294 33
      vertex 121.729 15.9294 37
    endloop
  endfacet
  facet normal 0.934993 -0.354667 0
    outer loop
      vertex 121.729 15.9294 33
      vertex 121.558 15.4786 37
      vertex 121.558 15.4786 33
    endloop
  endfacet
  facet normal 0.23941 0.970919 -0
    outer loop
      vertex 123.259 13.0146 33
      vertex 122.791 13.13 37
      vertex 123.259 13.0146 37
    endloop
  endfacet
  facet normal 0.23941 0.970919 0
    outer loop
      vertex 122.791 13.13 37
      vertex 123.259 13.0146 33
      vertex 122.791 13.13 33
    endloop
  endfacet
  facet normal -0.464549 0.885547 0
    outer loop
      vertex 124.636 13.354 33
      vertex 124.209 13.13 37
      vertex 124.636 13.354 37
    endloop
  endfacet
  facet normal -0.464549 0.885547 0
    outer loop
      vertex 124.209 13.13 37
      vertex 124.636 13.354 33
      vertex 124.209 13.13 33
    endloop
  endfacet
  facet normal 0.663102 -0.748529 0
    outer loop
      vertex 122.003 16.3262 33
      vertex 122.364 16.646 37
      vertex 122.003 16.3262 37
    endloop
  endfacet
  facet normal 0.663102 -0.748529 0
    outer loop
      vertex 122.364 16.646 37
      vertex 122.003 16.3262 33
      vertex 122.364 16.646 33
    endloop
  endfacet
  facet normal 0.23941 -0.970919 0
    outer loop
      vertex 122.791 16.87 33
      vertex 123.259 16.9854 37
      vertex 122.791 16.87 37
    endloop
  endfacet
  facet normal 0.23941 -0.970919 0
    outer loop
      vertex 123.259 16.9854 37
      vertex 122.791 16.87 33
      vertex 123.259 16.9854 33
    endloop
  endfacet
  facet normal -0.992737 0.120307 0
    outer loop
      vertex 125.442 14.5214 33
      vertex 125.5 15 37
      vertex 125.5 15 33
    endloop
  endfacet
  facet normal -0.992737 0.120307 0
    outer loop
      vertex 125.5 15 37
      vertex 125.442 14.5214 33
      vertex 125.442 14.5214 37
    endloop
  endfacet
  facet normal -0.23941 -0.970919 0
    outer loop
      vertex 123.741 16.9854 33
      vertex 124.209 16.87 37
      vertex 123.741 16.9854 37
    endloop
  endfacet
  facet normal -0.23941 -0.970919 -0
    outer loop
      vertex 124.209 16.87 37
      vertex 123.741 16.9854 33
      vertex 124.209 16.87 33
    endloop
  endfacet
  facet normal 0.464549 0.885547 -0
    outer loop
      vertex 122.791 13.13 33
      vertex 122.364 13.354 37
      vertex 122.791 13.13 37
    endloop
  endfacet
  facet normal 0.464549 0.885547 0
    outer loop
      vertex 122.364 13.354 37
      vertex 122.791 13.13 33
      vertex 122.364 13.354 33
    endloop
  endfacet
  facet normal 0.992737 0.120307 0
    outer loop
      vertex 121.558 14.5214 37
      vertex 121.5 15 33
      vertex 121.5 15 37
    endloop
  endfacet
  facet normal 0.992737 0.120307 0
    outer loop
      vertex 121.5 15 33
      vertex 121.558 14.5214 37
      vertex 121.558 14.5214 33
    endloop
  endfacet
  facet normal 0.822878 0.568217 0
    outer loop
      vertex 122.003 13.6738 37
      vertex 121.729 14.0706 33
      vertex 121.729 14.0706 37
    endloop
  endfacet
  facet normal 0.822878 0.568217 0
    outer loop
      vertex 121.729 14.0706 33
      vertex 122.003 13.6738 37
      vertex 122.003 13.6738 33
    endloop
  endfacet
  facet normal 0.992737 -0.120307 0
    outer loop
      vertex 121.5 15 37
      vertex 121.558 15.4786 33
      vertex 121.558 15.4786 37
    endloop
  endfacet
  facet normal 0.992737 -0.120307 0
    outer loop
      vertex 121.558 15.4786 33
      vertex 121.5 15 37
      vertex 121.5 15 33
    endloop
  endfacet
  facet normal 0.464549 -0.885547 0
    outer loop
      vertex 122.364 16.646 33
      vertex 122.791 16.87 37
      vertex 122.364 16.646 37
    endloop
  endfacet
  facet normal 0.464549 -0.885547 0
    outer loop
      vertex 122.791 16.87 37
      vertex 122.364 16.646 33
      vertex 122.791 16.87 33
    endloop
  endfacet
  facet normal -0.663102 0.748529 0
    outer loop
      vertex 124.997 13.6738 33
      vertex 124.636 13.354 37
      vertex 124.997 13.6738 37
    endloop
  endfacet
  facet normal -0.663102 0.748529 0
    outer loop
      vertex 124.636 13.354 37
      vertex 124.997 13.6738 33
      vertex 124.636 13.354 33
    endloop
  endfacet
  facet normal -0.23941 0.970919 0
    outer loop
      vertex 124.209 13.13 33
      vertex 123.741 13.0146 37
      vertex 124.209 13.13 37
    endloop
  endfacet
  facet normal -0.23941 0.970919 0
    outer loop
      vertex 123.741 13.0146 37
      vertex 124.209 13.13 33
      vertex 123.741 13.0146 33
    endloop
  endfacet
  facet normal -0.934993 0.354667 0
    outer loop
      vertex 125.271 14.0706 33
      vertex 125.442 14.5214 37
      vertex 125.442 14.5214 33
    endloop
  endfacet
  facet normal -0.934993 0.354667 0
    outer loop
      vertex 125.442 14.5214 37
      vertex 125.271 14.0706 33
      vertex 125.271 14.0706 37
    endloop
  endfacet
  facet normal -0.464549 -0.885547 0
    outer loop
      vertex 124.209 16.87 33
      vertex 124.636 16.646 37
      vertex 124.209 16.87 37
    endloop
  endfacet
  facet normal -0.464549 -0.885547 -0
    outer loop
      vertex 124.636 16.646 37
      vertex 124.209 16.87 33
      vertex 124.636 16.646 33
    endloop
  endfacet
  facet normal 0.934993 0.354667 0
    outer loop
      vertex 121.729 14.0706 37
      vertex 121.558 14.5214 33
      vertex 121.558 14.5214 37
    endloop
  endfacet
  facet normal 0.934993 0.354667 0
    outer loop
      vertex 121.558 14.5214 33
      vertex 121.729 14.0706 37
      vertex 121.729 14.0706 33
    endloop
  endfacet
  facet normal -0.663102 -0.748529 0
    outer loop
      vertex 124.636 16.646 33
      vertex 124.997 16.3262 37
      vertex 124.636 16.646 37
    endloop
  endfacet
  facet normal -0.663102 -0.748529 -0
    outer loop
      vertex 124.997 16.3262 37
      vertex 124.636 16.646 33
      vertex 124.997 16.3262 33
    endloop
  endfacet
  facet normal 0 -1 0
    outer loop
      vertex 123.259 16.9854 33
      vertex 123.741 16.9854 37
      vertex 123.259 16.9854 37
    endloop
  endfacet
  facet normal 0 -1 -0
    outer loop
      vertex 123.741 16.9854 37
      vertex 123.259 16.9854 33
      vertex 123.741 16.9854 33
    endloop
  endfacet
  facet normal -0.822878 -0.568217 0
    outer loop
      vertex 125.271 15.9294 33
      vertex 124.997 16.3262 37
      vertex 124.997 16.3262 33
    endloop
  endfacet
  facet normal -0.822878 -0.568217 0
    outer loop
      vertex 124.997 16.3262 37
      vertex 125.271 15.9294 33
      vertex 125.271 15.9294 37
    endloop
  endfacet
  facet normal 0.822878 -0.568217 0
    outer loop
      vertex 121.729 15.9294 37
      vertex 122.003 16.3262 33
      vertex 122.003 16.3262 37
    endloop
  endfacet
  facet normal 0.822878 -0.568217 0
    outer loop
      vertex 122.003 16.3262 33
      vertex 121.729 15.9294 37
      vertex 121.729 15.9294 33
    endloop
  endfacet
  facet normal 0 1 -0
    outer loop
      vertex 123.741 13.0146 33
      vertex 123.259 13.0146 37
      vertex 123.741 13.0146 37
    endloop
  endfacet
  facet normal 0 1 0
    outer loop
      vertex 123.259 13.0146 37
      vertex 123.741 13.0146 33
      vertex 123.259 13.0146 33
    endloop
  endfacet
  facet normal 0.663102 0.748529 -0
    outer loop
      vertex 122.364 13.354 33
      vertex 122.003 13.6738 37
      vertex 122.364 13.354 37
    endloop
  endfacet
  facet normal 0.663102 0.748529 0
    outer loop
      vertex 122.003 13.6738 37
      vertex 122.364 13.354 33
      vertex 122.003 13.6738 33
    endloop
  endfacet
  facet normal -0.992737 -0.120307 0
    outer loop
      vertex 125.5 70 33
      vertex 125.442 70.4786 37
      vertex 125.442 70.4786 33
    endloop
  endfacet
  facet normal -0.992737 -0.120307 0
    outer loop
      vertex 125.442 70.4786 37
      vertex 125.5 70 33
      vertex 125.5 70 37
    endloop
  endfacet
  facet normal -0.934993 -0.354667 0
    outer loop
      vertex 125.442 70.4786 33
      vertex 125.271 70.9294 37
      vertex 125.271 70.9294 33
    endloop
  endfacet
  facet normal -0.934993 -0.354667 0
    outer loop
      vertex 125.271 70.9294 37
      vertex 125.442 70.4786 33
      vertex 125.442 70.4786 37
    endloop
  endfacet
  facet normal 0.992737 -0.120307 0
    outer loop
      vertex 121.5 70 37
      vertex 121.558 70.4786 33
      vertex 121.558 70.4786 37
    endloop
  endfacet
  facet normal 0.992737 -0.120307 0
    outer loop
      vertex 121.558 70.4786 33
      vertex 121.5 70 37
      vertex 121.5 70 33
    endloop
  endfacet
  facet normal -0.464549 0.885547 0
    outer loop
      vertex 124.636 68.354 33
      vertex 124.209 68.13 37
      vertex 124.636 68.354 37
    endloop
  endfacet
  facet normal -0.464549 0.885547 0
    outer loop
      vertex 124.209 68.13 37
      vertex 124.636 68.354 33
      vertex 124.209 68.13 33
    endloop
  endfacet
  facet normal 0.464549 0.885547 -0
    outer loop
      vertex 122.791 68.13 33
      vertex 122.364 68.354 37
      vertex 122.791 68.13 37
    endloop
  endfacet
  facet normal 0.464549 0.885547 0
    outer loop
      vertex 122.364 68.354 37
      vertex 122.791 68.13 33
      vertex 122.364 68.354 33
    endloop
  endfacet
  facet normal 0.663102 -0.748529 0
    outer loop
      vertex 122.003 71.3262 33
      vertex 122.364 71.646 37
      vertex 122.003 71.3262 37
    endloop
  endfacet
  facet normal 0.663102 -0.748529 0
    outer loop
      vertex 122.364 71.646 37
      vertex 122.003 71.3262 33
      vertex 122.364 71.646 33
    endloop
  endfacet
  facet normal 0 -1 0
    outer loop
      vertex 123.259 71.9854 33
      vertex 123.741 71.9854 37
      vertex 123.259 71.9854 37
    endloop
  endfacet
  facet normal 0 -1 -0
    outer loop
      vertex 123.741 71.9854 37
      vertex 123.259 71.9854 33
      vertex 123.741 71.9854 33
    endloop
  endfacet
  facet normal -0.822878 -0.568217 0
    outer loop
      vertex 125.271 70.9294 33
      vertex 124.997 71.3262 37
      vertex 124.997 71.3262 33
    endloop
  endfacet
  facet normal -0.822878 -0.568217 0
    outer loop
      vertex 124.997 71.3262 37
      vertex 125.271 70.9294 33
      vertex 125.271 70.9294 37
    endloop
  endfacet
  facet normal 0.934993 -0.354667 0
    outer loop
      vertex 121.558 70.4786 37
      vertex 121.729 70.9294 33
      vertex 121.729 70.9294 37
    endloop
  endfacet
  facet normal 0.934993 -0.354667 0
    outer loop
      vertex 121.729 70.9294 33
      vertex 121.558 70.4786 37
      vertex 121.558 70.4786 33
    endloop
  endfacet
  facet normal -0.23941 -0.970919 0
    outer loop
      vertex 123.741 71.9854 33
      vertex 124.209 71.87 37
      vertex 123.741 71.9854 37
    endloop
  endfacet
  facet normal -0.23941 -0.970919 -0
    outer loop
      vertex 124.209 71.87 37
      vertex 123.741 71.9854 33
      vertex 124.209 71.87 33
    endloop
  endfacet
  facet normal 0.934993 0.354667 0
    outer loop
      vertex 121.729 69.0706 37
      vertex 121.558 69.5214 33
      vertex 121.558 69.5214 37
    endloop
  endfacet
  facet normal 0.934993 0.354667 0
    outer loop
      vertex 121.558 69.5214 33
      vertex 121.729 69.0706 37
      vertex 121.729 69.0706 33
    endloop
  endfacet
  facet normal -0.663102 -0.748529 0
    outer loop
      vertex 124.636 71.646 33
      vertex 124.997 71.3262 37
      vertex 124.636 71.646 37
    endloop
  endfacet
  facet normal -0.663102 -0.748529 -0
    outer loop
      vertex 124.997 71.3262 37
      vertex 124.636 71.646 33
      vertex 124.997 71.3262 33
    endloop
  endfacet
  facet normal 0.822878 0.568217 0
    outer loop
      vertex 122.003 68.6738 37
      vertex 121.729 69.0706 33
      vertex 121.729 69.0706 37
    endloop
  endfacet
  facet normal 0.822878 0.568217 0
    outer loop
      vertex 121.729 69.0706 33
      vertex 122.003 68.6738 37
      vertex 122.003 68.6738 33
    endloop
  endfacet
  facet normal -0.23941 0.970919 0
    outer loop
      vertex 124.209 68.13 33
      vertex 123.741 68.0146 37
      vertex 124.209 68.13 37
    endloop
  endfacet
  facet normal -0.23941 0.970919 0
    outer loop
      vertex 123.741 68.0146 37
      vertex 124.209 68.13 33
      vertex 123.741 68.0146 33
    endloop
  endfacet
  facet normal 0.464549 -0.885547 0
    outer loop
      vertex 122.364 71.646 33
      vertex 122.791 71.87 37
      vertex 122.364 71.646 37
    endloop
  endfacet
  facet normal 0.464549 -0.885547 0
    outer loop
      vertex 122.791 71.87 37
      vertex 122.364 71.646 33
      vertex 122.791 71.87 33
    endloop
  endfacet
  facet normal 0.992737 0.120307 0
    outer loop
      vertex 121.558 69.5214 37
      vertex 121.5 70 33
      vertex 121.5 70 37
    endloop
  endfacet
  facet normal 0.992737 0.120307 0
    outer loop
      vertex 121.5 70 33
      vertex 121.558 69.5214 37
      vertex 121.558 69.5214 33
    endloop
  endfacet
  facet normal 0.822878 -0.568217 0
    outer loop
      vertex 121.729 70.9294 37
      vertex 122.003 71.3262 33
      vertex 122.003 71.3262 37
    endloop
  endfacet
  facet normal 0.822878 -0.568217 0
    outer loop
      vertex 122.003 71.3262 33
      vertex 121.729 70.9294 37
      vertex 121.729 70.9294 33
    endloop
  endfacet
  facet normal -0.663102 0.748529 0
    outer loop
      vertex 124.997 68.6738 33
      vertex 124.636 68.354 37
      vertex 124.997 68.6738 37
    endloop
  endfacet
  facet normal -0.663102 0.748529 0
    outer loop
      vertex 124.636 68.354 37
      vertex 124.997 68.6738 33
      vertex 124.636 68.354 33
    endloop
  endfacet
  facet normal -0.934993 0.354667 0
    outer loop
      vertex 125.271 69.0706 33
      vertex 125.442 69.5214 37
      vertex 125.442 69.5214 33
    endloop
  endfacet
  facet normal -0.934993 0.354667 0
    outer loop
      vertex 125.442 69.5214 37
      vertex 125.271 69.0706 33
      vertex 125.271 69.0706 37
    endloop
  endfacet
  facet normal 0.663102 0.748529 -0
    outer loop
      vertex 122.364 68.354 33
      vertex 122.003 68.6738 37
      vertex 122.364 68.354 37
    endloop
  endfacet
  facet normal 0.663102 0.748529 0
    outer loop
      vertex 122.003 68.6738 37
      vertex 122.364 68.354 33
      vertex 122.003 68.6738 33
    endloop
  endfacet
  facet normal -0.464549 -0.885547 0
    outer loop
      vertex 124.209 71.87 33
      vertex 124.636 71.646 37
      vertex 124.209 71.87 37
    endloop
  endfacet
  facet normal -0.464549 -0.885547 -0
    outer loop
      vertex 124.636 71.646 37
      vertex 124.209 71.87 33
      vertex 124.636 71.646 33
    endloop
  endfacet
  facet normal 0.23941 0.970919 -0
    outer loop
      vertex 123.259 68.0146 33
      vertex 122.791 68.13 37
      vertex 123.259 68.0146 37
    endloop
  endfacet
  facet normal 0.23941 0.970919 0
    outer loop
      vertex 122.791 68.13 37
      vertex 123.259 68.0146 33
      vertex 122.791 68.13 33
    endloop
  endfacet
  facet normal -0.992737 0.120307 0
    outer loop
      vertex 125.442 69.5214 33
      vertex 125.5 70 37
      vertex 125.5 70 33
    endloop
  endfacet
  facet normal -0.992737 0.120307 0
    outer loop
      vertex 125.5 70 37
      vertex 125.442 69.5214 33
      vertex 125.442 69.5214 37
    endloop
  endfacet
  facet normal -0.822878 0.568217 0
    outer loop
      vertex 124.997 68.6738 33
      vertex 125.271 69.0706 37
      vertex 125.271 69.0706 33
    endloop
  endfacet
  facet normal -0.822878 0.568217 0
    outer loop
      vertex 125.271 69.0706 37
      vertex 124.997 68.6738 33
      vertex 124.997 68.6738 37
    endloop
  endfacet
  facet normal 0.23941 -0.970919 0
    outer loop
      vertex 122.791 71.87 33
      vertex 123.259 71.9854 37
      vertex 122.791 71.87 37
    endloop
  endfacet
  facet normal 0.23941 -0.970919 0
    outer loop
      vertex 123.259 71.9854 37
      vertex 122.791 71.87 33
      vertex 123.259 71.9854 33
    endloop
  endfacet
  facet normal 0 1 -0
    outer loop
      vertex 123.741 68.0146 33
      vertex 123.259 68.0146 37
      vertex 123.741 68.0146 37
    endloop
  endfacet
  facet normal 0 1 0
    outer loop
      vertex 123.259 68.0146 37
      vertex 123.741 68.0146 33
      vertex 123.259 68.0146 33
    endloop
  endfacet
  facet normal 1 -0 0
    outer loop
      vertex 115 18 -35
      vertex 115 87 -61
      vertex 115 87 -35
    endloop
  endfacet
  facet normal 1 0 0
    outer loop
      vertex 115 87 -61
      vertex 115 18 -35
      vertex 115 18 -61
    endloop
  endfacet
  facet normal 0 0 -1
    outer loop
      vertex 118 0 -35
      vertex 115 18 -35
      vertex 118 87 -35
    endloop
  endfacet
  facet normal 0 0 -1
    outer loop
      vertex 118 0 -35
      vertex 111 18 -35
      vertex 115 18 -35
    endloop
  endfacet
  facet normal 0 0 -1
    outer loop
      vertex 111 18 -35
      vertex 102 85 -35
      vertex 111 87 -35
    endloop
  endfacet
  facet normal 0 0 -1
    outer loop
      vertex 111 18 -35
      vertex 98 85 -35
      vertex 102 85 -35
    endloop
  endfacet
  facet normal 0 0 -1
    outer loop
      vertex 98 85 -35
      vertex 11 85 -35
      vertex 98 87 -35
    endloop
  endfacet
  facet normal 0 0 -1
    outer loop
      vertex 7 18 -35
      vertex 98 85 -35
      vertex 111 18 -35
    endloop
  endfacet
  facet normal 0 0 -1
    outer loop
      vertex 7 18 -35
      vertex 111 18 -35
      vertex 118 0 -35
    endloop
  endfacet
  facet normal -0 0 -1
    outer loop
      vertex 98 85 -35
      vertex 7 18 -35
      vertex 11 85 -35
    endloop
  endfacet
  facet normal 0 0 -1
    outer loop
      vertex 0 0 -35
      vertex 7 18 -35
      vertex 118 0 -35
    endloop
  endfacet
  facet normal -0 0 -1
    outer loop
      vertex 7 18 -35
      vertex 0 0 -35
      vertex 3 18 -35
    endloop
  endfacet
  facet normal 0 0 -1
    outer loop
      vertex 0 87 -35
      vertex 3 18 -35
      vertex 0 0 -35
    endloop
  endfacet
  facet normal 0 0 -1
    outer loop
      vertex 3 18 -35
      vertex 0 87 -35
      vertex 3 87 -35
    endloop
  endfacet
  facet normal -0 0 -1
    outer loop
      vertex 118 87 -35
      vertex 115 18 -35
      vertex 115 87 -35
    endloop
  endfacet
  facet normal -0 0 -1
    outer loop
      vertex 111 87 -35
      vertex 102 85 -35
      vertex 102 87 -35
    endloop
  endfacet
  facet normal -0 0 -1
    outer loop
      vertex 98 87 -35
      vertex 11 85 -35
      vertex 11 87 -35
    endloop
  endfacet
  facet normal -0 0 -1
    outer loop
      vertex 11 85 -35
      vertex 7 18 -35
      vertex 7 85 -35
    endloop
  endfacet
  facet normal 0 0 -1
    outer loop
      vertex 98 18 -61
      vertex 115 87 -61
      vertex 115 18 -61
    endloop
  endfacet
  facet normal -0 0 -1
    outer loop
      vertex 115 87 -61
      vertex 98 18 -61
      vertex 98 87 -61
    endloop
  endfacet
  facet normal 0 0 -1
    outer loop
      vertex 3 18 -61
      vertex 11 87 -61
      vertex 11 18 -61
    endloop
  endfacet
  facet normal -0 0 -1
    outer loop
      vertex 11 87 -61
      vertex 3 18 -61
      vertex 3 87 -61
    endloop
  endfacet
  facet normal -1 0 0
    outer loop
      vertex 3 18 -61
      vertex 3 87 -35
      vertex 3 87 -61
    endloop
  endfacet
  facet normal -1 -0 0
    outer loop
      vertex 3 87 -35
      vertex 3 18 -61
      vertex 3 18 -35
    endloop
  endfacet
  facet normal 0 -1 0
    outer loop
      vertex 98 18 -61
      vertex 102 18 -57
      vertex 98 18 -57
    endloop
  endfacet
  facet normal 0 -1 -0
    outer loop
      vertex 102 18 -57
      vertex 98 18 -61
      vertex 105 18 -57
    endloop
  endfacet
  facet normal 0 -1 0
    outer loop
      vertex 115 18 -61
      vertex 105 18 -57
      vertex 98 18 -61
    endloop
  endfacet
  facet normal 0 -1 0
    outer loop
      vertex 102 18 -57
      vertex 105 18 -41
      vertex 102 18 -41
    endloop
  endfacet
  facet normal 0 -1 -0
    outer loop
      vertex 105 18 -41
      vertex 102 18 -57
      vertex 105 18 -57
    endloop
  endfacet
  facet normal 0 -1 0
    outer loop
      vertex 111 18 -57
      vertex 115 18 -35
      vertex 111 18 -35
    endloop
  endfacet
  facet normal 0 -1 0
    outer loop
      vertex 111 18 -57
      vertex 115 18 -61
      vertex 115 18 -35
    endloop
  endfacet
  facet normal 0 -1 0
    outer loop
      vertex 105 18 -57
      vertex 115 18 -61
      vertex 111 18 -57
    endloop
  endfacet
  facet normal 0 -1 0
    outer loop
      vertex 3 18 -35
      vertex 7 18 -57
      vertex 7 18 -35
    endloop
  endfacet
  facet normal 0 -1 0
    outer loop
      vertex 3 18 -61
      vertex 7 18 -57
      vertex 3 18 -35
    endloop
  endfacet
  facet normal 0 -1 0
    outer loop
      vertex 11 18 -61
      vertex 7 18 -57
      vertex 3 18 -61
    endloop
  endfacet
  facet normal 0 -1 0
    outer loop
      vertex 7 18 -57
      vertex 11 18 -61
      vertex 11 18 -57
    endloop
  endfacet
  facet normal -1 0 0
    outer loop
      vertex 111 18 -57
      vertex 111 87 -35
      vertex 111 87 -57
    endloop
  endfacet
  facet normal -1 -0 0
    outer loop
      vertex 111 87 -35
      vertex 111 18 -57
      vertex 111 18 -35
    endloop
  endfacet
  facet normal 0 0 1
    outer loop
      vertex 111 87 -57
      vertex 105 28 -57
      vertex 111 18 -57
    endloop
  endfacet
  facet normal 0 0 1
    outer loop
      vertex 102 85 -57
      vertex 111 87 -57
      vertex 102 87 -57
    endloop
  endfacet
  facet normal 0 0 1
    outer loop
      vertex 111 87 -57
      vertex 102 85 -57
      vertex 105 28 -57
    endloop
  endfacet
  facet normal 0 0 1
    outer loop
      vertex 102 85 -57
      vertex 102 28 -57
      vertex 105 28 -57
    endloop
  endfacet
  facet normal -0 0 1
    outer loop
      vertex 98 85 -57
      vertex 102 28 -57
      vertex 102 85 -57
    endloop
  endfacet
  facet normal 0 0 1
    outer loop
      vertex 98 18 -57
      vertex 102 28 -57
      vertex 98 85 -57
    endloop
  endfacet
  facet normal 0 0 1
    outer loop
      vertex 102 28 -57
      vertex 98 18 -57
      vertex 102 18 -57
    endloop
  endfacet
  facet normal 0 0 1
    outer loop
      vertex 111 18 -57
      vertex 105 28 -57
      vertex 105 18 -57
    endloop
  endfacet
  facet normal -0 0 1
    outer loop
      vertex 7 85 -57
      vertex 11 18 -57
      vertex 11 85 -57
    endloop
  endfacet
  facet normal 0 0 1
    outer loop
      vertex 11 18 -57
      vertex 7 85 -57
      vertex 7 18 -57
    endloop
  endfacet
  facet normal 1 -0 0
    outer loop
      vertex 7 18 -35
      vertex 7 85 -57
      vertex 7 85 -35
    endloop
  endfacet
  facet normal 1 0 0
    outer loop
      vertex 7 85 -57
      vertex 7 18 -35
      vertex 7 18 -57
    endloop
  endfacet
  facet normal 0 -1 0
    outer loop
      vertex 7 85 -57
      vertex 11 85 -35
      vertex 7 85 -35
    endloop
  endfacet
  facet normal 0 -1 -0
    outer loop
      vertex 11 85 -35
      vertex 7 85 -57
      vertex 11 85 -57
    endloop
  endfacet
  facet normal 0 -1 0
    outer loop
      vertex 98 85 -57
      vertex 102 85 -35
      vertex 98 85 -35
    endloop
  endfacet
  facet normal 0 -1 -0
    outer loop
      vertex 102 85 -35
      vertex 98 85 -57
      vertex 102 85 -57
    endloop
  endfacet
  facet normal -1 0 0
    outer loop
      vertex 98 87 -61
      vertex 98 85 -57
      vertex 98 87 -35
    endloop
  endfacet
  facet normal -1 0 0
    outer loop
      vertex 98 18 -61
      vertex 98 85 -57
      vertex 98 87 -61
    endloop
  endfacet
  facet normal -1 -0 0
    outer loop
      vertex 98 85 -57
      vertex 98 18 -61
      vertex 98 18 -57
    endloop
  endfacet
  facet normal -1 -0 0
    outer loop
      vertex 98 87 -35
      vertex 98 85 -57
      vertex 98 85 -35
    endloop
  endfacet
  facet normal 1 0 0
    outer loop
      vertex 11 85 -57
      vertex 11 87 -35
      vertex 11 85 -35
    endloop
  endfacet
  facet normal 1 0 0
    outer loop
      vertex 11 87 -35
      vertex 11 85 -57
      vertex 11 87 -61
    endloop
  endfacet
  facet normal 1 0 0
    outer loop
      vertex 11 18 -61
      vertex 11 85 -57
      vertex 11 18 -57
    endloop
  endfacet
  facet normal 1 0 0
    outer loop
      vertex 11 85 -57
      vertex 11 18 -61
      vertex 11 87 -61
    endloop
  endfacet
  facet normal 1 -0 0
    outer loop
      vertex 102 85 -35
      vertex 102 87 -57
      vertex 102 87 -35
    endloop
  endfacet
  facet normal 1 0 0
    outer loop
      vertex 102 87 -57
      vertex 102 85 -35
      vertex 102 85 -57
    endloop
  endfacet
  facet normal 1 -0 0
    outer loop
      vertex 105 18 -41
      vertex 105 28 -57
      vertex 105 28 -41
    endloop
  endfacet
  facet normal 1 0 0
    outer loop
      vertex 105 28 -57
      vertex 105 18 -41
      vertex 105 18 -57
    endloop
  endfacet
  facet normal -0 0 1
    outer loop
      vertex 102 28 -41
      vertex 105 18 -41
      vertex 105 28 -41
    endloop
  endfacet
  facet normal 0 0 1
    outer loop
      vertex 105 18 -41
      vertex 102 28 -41
      vertex 102 18 -41
    endloop
  endfacet
  facet normal -1 0 0
    outer loop
      vertex 102 18 -57
      vertex 102 28 -41
      vertex 102 28 -57
    endloop
  endfacet
  facet normal -1 -0 0
    outer loop
      vertex 102 28 -41
      vertex 102 18 -57
      vertex 102 18 -41
    endloop
  endfacet
  facet normal 0 1 -0
    outer loop
      vertex 105 28 -57
      vertex 102 28 -41
      vertex 105 28 -41
    endloop
  endfacet
  facet normal 0 1 0
    outer loop
      vertex 102 28 -41
      vertex 105 28 -57
      vertex 102 28 -57
    endloop
  endfacet
  facet normal 0 0 -1
    outer loop
      vertex 114 0 0
      vertex 110 85 0
      vertex 114 85 0
    endloop
  endfacet
  facet normal 0 0 -1
    outer loop
      vertex 110 85 0
      vertex 8 85 0
      vertex 110 87 0
    endloop
  endfacet
  facet normal 0 0 -1
    outer loop
      vertex 114 0 0
      vertex 8 85 0
      vertex 110 85 0
    endloop
  endfacet
  facet normal 0 0 -1
    outer loop
      vertex 4 0 0
      vertex 8 85 0
      vertex 114 0 0
    endloop
  endfacet
  facet normal -0 0 -1
    outer loop
      vertex 8 85 0
      vertex 4 0 0
      vertex 4 85 0
    endloop
  endfacet
  facet normal -0 0 -1
    outer loop
      vertex 110 87 0
      vertex 8 85 0
      vertex 8 87 0
    endloop
  endfacet
  facet normal -1 0 0
    outer loop
      vertex 114 0 2
      vertex 114 85 37
      vertex 114 85 2
    endloop
  endfacet
  facet normal -1 -0 0
    outer loop
      vertex 114 85 37
      vertex 114 0 2
      vertex 114 0 37
    endloop
  endfacet
  facet normal 0 0 1
    outer loop
      vertex 110 87 2
      vertex 8 87 2
      vertex 110 85 2
    endloop
  endfacet
  facet normal -0 0 1
    outer loop
      vertex 110 85 2
      vertex 114 0 2
      vertex 114 85 2
    endloop
  endfacet
  facet normal 0 0 1
    outer loop
      vertex 8 85 2
      vertex 110 85 2
      vertex 8 87 2
    endloop
  endfacet
  facet normal 0 0 1
    outer loop
      vertex 110 85 2
      vertex 8 85 2
      vertex 114 0 2
    endloop
  endfacet
  facet normal 0 0 1
    outer loop
      vertex 4 0 2
      vertex 8 85 2
      vertex 4 85 2
    endloop
  endfacet
  facet normal 0 0 1
    outer loop
      vertex 8 85 2
      vertex 4 0 2
      vertex 114 0 2
    endloop
  endfacet
  facet normal 1 -0 0
    outer loop
      vertex 4 0 37
      vertex 4 85 2
      vertex 4 85 37
    endloop
  endfacet
  facet normal 1 0 0
    outer loop
      vertex 4 85 2
      vertex 4 0 37
      vertex 4 0 2
    endloop
  endfacet
  facet normal 0 -1 0
    outer loop
      vertex 4 85 2
      vertex 8 85 37
      vertex 4 85 37
    endloop
  endfacet
  facet normal 0 -1 -0
    outer loop
      vertex 8 85 37
      vertex 4 85 2
      vertex 8 85 2
    endloop
  endfacet
  facet normal 0 -1 0
    outer loop
      vertex 110 85 2
      vertex 114 85 37
      vertex 110 85 37
    endloop
  endfacet
  facet normal 0 -1 -0
    outer loop
      vertex 114 85 37
      vertex 110 85 2
      vertex 114 85 2
    endloop
  endfacet
  facet normal -1 0 0
    outer loop
      vertex 110 85 2
      vertex 110 87 37
      vertex 110 87 2
    endloop
  endfacet
  facet normal -1 -0 0
    outer loop
      vertex 110 87 37
      vertex 110 85 2
      vertex 110 85 37
    endloop
  endfacet
  facet normal 1 -0 0
    outer loop
      vertex 8 85 37
      vertex 8 87 2
      vertex 8 87 37
    endloop
  endfacet
  facet normal 1 0 0
    outer loop
      vertex 8 87 2
      vertex 8 85 37
      vertex 8 85 2
    endloop
  endfacet
  facet normal -1 0 0
    outer loop
      vertex 114 0 -33
      vertex 114 85 0
      vertex 114 85 -33
    endloop
  endfacet
  facet normal -1 -0 0
    outer loop
      vertex 114 85 0
      vertex 114 0 -33
      vertex 114 0 0
    endloop
  endfacet
  facet normal 0 0 1
    outer loop
      vertex 110 87 -33
      vertex 8 87 -33
      vertex 110 85 -33
    endloop
  endfacet
  facet normal -0 0 1
    outer loop
      vertex 110 85 -33
      vertex 114 0 -33
      vertex 114 85 -33
    endloop
  endfacet
  facet normal 0 0 1
    outer loop
      vertex 8 85 -33
      vertex 110 85 -33
      vertex 8 87 -33
    endloop
  endfacet
  facet normal 0 0 1
    outer loop
      vertex 110 85 -33
      vertex 8 85 -33
      vertex 114 0 -33
    endloop
  endfacet
  facet normal 0 0 1
    outer loop
      vertex 4 0 -33
      vertex 8 85 -33
      vertex 4 85 -33
    endloop
  endfacet
  facet normal 0 0 1
    outer loop
      vertex 8 85 -33
      vertex 4 0 -33
      vertex 114 0 -33
    endloop
  endfacet
  facet normal 1 -0 0
    outer loop
      vertex 4 0 0
      vertex 4 85 -33
      vertex 4 85 0
    endloop
  endfacet
  facet normal 1 0 0
    outer loop
      vertex 4 85 -33
      vertex 4 0 0
      vertex 4 0 -33
    endloop
  endfacet
  facet normal 0 -1 0
    outer loop
      vertex 4 85 -33
      vertex 8 85 0
      vertex 4 85 0
    endloop
  endfacet
  facet normal 0 -1 -0
    outer loop
      vertex 8 85 0
      vertex 4 85 -33
      vertex 8 85 -33
    endloop
  endfacet
  facet normal 0 -1 0
    outer loop
      vertex 110 85 -33
      vertex 114 85 0
      vertex 110 85 0
    endloop
  endfacet
  facet normal 0 -1 -0
    outer loop
      vertex 114 85 0
      vertex 110 85 -33
      vertex 114 85 -33
    endloop
  endfacet
  facet normal -1 0 0
    outer loop
      vertex 110 85 -33
      vertex 110 87 0
      vertex 110 87 -33
    endloop
  endfacet
  facet normal -1 -0 0
    outer loop
      vertex 110 87 0
      vertex 110 85 -33
      vertex 110 85 0
    endloop
  endfacet
  facet normal 1 -0 0
    outer loop
      vertex 8 85 0
      vertex 8 87 -33
      vertex 8 87 0
    endloop
  endfacet
  facet normal 1 0 0
    outer loop
      vertex 8 87 -33
      vertex 8 85 0
      vertex 8 85 -33
    endloop
  endfacet
endsolid OpenSCAD_Model
